<?xml version="1.0" encoding="UTF-8" standalone="no"?><!DOCTYPE svg PUBLIC "-//W3C//DTD SVG 1.1//EN" "http://www.w3.org/Graphics/SVG/1.1/DTD/svg11.dtd"><svg width="100%" height="100%" viewBox="0 0 1563 2188" version="1.1" xmlns="http://www.w3.org/2000/svg" xmlns:xlink="http://www.w3.org/1999/xlink" xml:space="preserve" style="fill-rule:evenodd;clip-rule:evenodd;stroke-linejoin:round;stroke-miterlimit:1.41421;"><rect x="0" y="-3.531" width="1562.5" height="2187.5" style="fill:#f9f7e8;"/><g transform="matrix(-1.60812e-16,-1,1,-1.60812e-16,-3226.08,1831.55)"><text x="-218.314px" y="3481.43px" style="font-family:'Arvo';font-size:255.413px;fill:#ffbfad;">T<tspan x="-49.692px 169.939px 320.104px 365.759px 565.435px 715.6px 865.765px 1050.97px 1096.63px 1229.46px 1388.6px 1557.23px " y="3481.43px 3481.43px 3481.43px 3481.43px 3481.43px 3481.43px 3481.43px 3481.43px 3481.43px 3481.43px 3481.43px 3481.43px ">HE GEEK PATH</tspan></text></g><text x="309.522px" y="94.122px" style="font-family:'Arvo';font-size:42.277px;fill:#111;">IN EVERY ONE OF US THERE LIES A SEED OF GEEKINESS.</text><text x="306.674px" y="237.588px" style="font-family:'Arvo-Bold', 'Arvo';font-weight:700;font-size:103.863px;fill:#ff4136;">BE CURIOUS.</text><text x="670.476px" y="661.518px" style="font-family:'Arvo-Bold', 'Arvo';font-weight:700;font-size:86.36px;fill:#ff4136;">BE OPEN-MINDED.</text><text x="304.616px" y="1576.11px" style="font-family:'Arvo-Bold', 'Arvo';font-weight:700;font-size:126.135px;fill:#ff4136;">BE BOLD.</text><text x="300.419px" y="2121.26px" style="font-family:'Arvo-Bold', 'Arvo';font-weight:700;font-size:224.704px;fill:#ff4136;">BE GEEKS.</text><g transform="matrix(-3.39553e-15,-21.1149,21.2844,-3.4228e-15,-697.266,2531.25)"><g transform="matrix(1.00803,0,0,1,-0.180706,0)"><text x="22.502px" y="44.756px" style="font-family:'Arvo';font-size:12px;fill:none;">T<tspan x="30.425px 40.744px 47.799px 49.944px 59.325px 66.38px 73.435px 82.137px 84.282px 90.523px 98px 105.922px " y="44.756px 44.756px 44.756px 44.756px 44.756px 44.756px 44.756px 44.756px 44.756px 44.756px 44.756px 44.756px ">HE GEEK PATH</tspan></text></g><g transform="matrix(1.00803,0,0,1,-0.180706,0)"><g><text x="22.502px" y="44.756px" style="font-family:'Arvo';font-size:12px;fill:#62bfad;">T<tspan x="30.425px 40.744px 47.799px 49.944px 59.325px 66.38px 73.435px 82.137px 84.282px 90.523px 98px 105.922px " y="44.756px 44.756px 44.756px 44.756px 44.756px 44.756px 44.756px 44.756px 44.756px 44.756px 44.756px 44.756px ">HE GEEK PATH</tspan></text><path d="M29.463,38.217l0,-1.383l-2.343,0l0,6.915l0.914,0l0,1.007l-2.877,0l0,-1.007l0.814,0l0,-6.915l-2.027,0l0,1.383l-1.201,0l0,-2.343l7.922,0l0,2.343l-1.202,0Zm1.104,-2.246l-7.726,0l0,2.148l1.005,0l0,-1.285l0.001,-0.016l0.005,-0.017l0.007,-0.015l0.01,-0.014l0.012,-0.012l0.014,-0.01l0.015,-0.007l0.017,-0.005l0.017,-0.001l2.027,0l0.017,0.001l0.017,0.005l0.015,0.007l0.014,0.01l0.012,0.012l0.01,0.014l0.007,0.015l0.005,0.017l0.001,0.016l0,6.915l-0.001,0.017l-0.005,0.016l-0.007,0.016l-0.01,0.013l-0.012,0.013l-0.014,0.009l-0.015,0.008l-0.017,0.004l-0.017,0.001l-0.716,0l0,0.812l2.681,0l0,-0.812l-0.816,0l-0.017,-0.001l-0.017,-0.004l-0.015,-0.008l-0.014,-0.009l-0.012,-0.013l-0.01,-0.013l-0.007,-0.016l-0.005,-0.016l-0.001,-0.017l0,-6.915l0.001,-0.016l0.005,-0.017l0.007,-0.015l0.01,-0.014l0.012,-0.012l0.014,-0.01l0.015,-0.007l0.017,-0.005l0.017,-0.001l2.343,0l0.017,0.001l0.017,0.005l0.015,0.007l0.014,0.01l0.012,0.012l0.01,0.014l0.007,0.015l0.005,0.017l0.001,0.016l0,1.285l1.006,0l0,-2.148Z" style="fill:#fff;"/><path d="M37.503,44.756l0,-1.007l0.891,0l0,-3.194l-5.139,0l0,3.194l0.89,0l0,1.007l-2.882,0l0,-1.007l0.843,0l0,-6.868l-0.843,0l0,-1.007l2.882,0l0,1.007l-0.89,0l0,2.69l5.139,0l0,-2.69l-0.891,0l0,-1.007l2.883,0l0,1.007l-0.844,0l0,6.868l0.844,0l0,1.007l-2.883,0Zm2.785,-8.785l-2.687,0l0,0.812l0.793,0l0.017,0.002l0.016,0.004l0.015,0.008l0.014,0.009l0.013,0.012l0.009,0.014l0.008,0.016l0.004,0.016l0.001,0.017l0,2.69l-0.001,0.017l-0.004,0.016l-0.008,0.016l-0.009,0.014l-0.013,0.012l-0.014,0.01l-0.015,0.007l-0.016,0.004l-0.017,0.002l-5.139,0l-0.017,-0.002l-0.017,-0.004l-0.015,-0.007l-0.014,-0.01l-0.012,-0.012l-0.01,-0.014l-0.007,-0.016l-0.005,-0.016l-0.001,-0.017l0,-2.69l0.001,-0.017l0.005,-0.016l0.007,-0.016l0.01,-0.014l0.012,-0.012l0.014,-0.009l0.015,-0.008l0.017,-0.004l0.017,-0.002l0.793,0l0,-0.812l-2.687,0l0,0.812l0.745,0l0.017,0.002l0.017,0.004l0.015,0.008l0.014,0.009l0.012,0.012l0.01,0.014l0.007,0.016l0.005,0.016l0.001,0.017l0,6.868l-0.001,0.017l-0.005,0.016l-0.007,0.016l-0.01,0.013l-0.012,0.013l-0.014,0.009l-0.015,0.008l-0.017,0.004l-0.017,0.001l-0.745,0l0,0.812l2.687,0l0,-0.812l-0.793,0l-0.017,-0.001l-0.017,-0.004l-0.015,-0.008l-0.014,-0.009l-0.012,-0.013l-0.01,-0.013l-0.007,-0.016l-0.005,-0.016l-0.001,-0.017l0,-3.194l0.001,-0.017l0.005,-0.016l0.007,-0.016l0.01,-0.014l0.012,-0.012l0.014,-0.01l0.015,-0.007l0.017,-0.004l0.017,-0.002l5.139,0l0.017,0.002l0.016,0.004l0.015,0.007l0.014,0.01l0.013,0.012l0.009,0.014l0.008,0.016l0.004,0.016l0.001,0.017l0,3.194l-0.001,0.017l-0.004,0.016l-0.008,0.016l-0.009,0.013l-0.013,0.013l-0.014,0.009l-0.015,0.008l-0.016,0.004l-0.017,0.001l-0.793,0l0,0.812l2.687,0l0,-0.812l-0.746,0l-0.017,-0.001l-0.017,-0.004l-0.015,-0.008l-0.014,-0.009l-0.012,-0.013l-0.01,-0.013l-0.007,-0.016l-0.004,-0.016l-0.002,-0.017l0,-6.868l0.002,-0.017l0.004,-0.016l0.007,-0.016l0.01,-0.014l0.012,-0.012l0.014,-0.009l0.015,-0.008l0.017,-0.004l0.017,-0.002l0.746,0l0,-0.812Z" style="fill:#fff;"/><path d="M46.744,38.387l0,-1.5l-3.17,0l0,2.842l2.666,0l0,1.008l-2.666,0l0,3.012l3.17,0l0,-1.5l1.201,0l0,2.507l-6.363,0l0,-1.007l0.843,0l0,-6.862l-0.843,0l0,-1.013l6.363,0l0,2.513l-1.201,0Zm1.103,-2.416l-6.168,0l0,0.818l0.746,0l0.017,0.002l0.017,0.004l0.015,0.007l0.014,0.01l0.012,0.012l0.01,0.014l0.007,0.016l0.005,0.016l0.001,0.017l0,6.862l-0.001,0.017l-0.005,0.016l-0.007,0.016l-0.01,0.013l-0.012,0.013l-0.014,0.009l-0.015,0.008l-0.017,0.004l-0.017,0.001l-0.746,0l0,0.812l6.168,0l0,-2.312l-1.006,0l0,1.403l-0.001,0.017l-0.004,0.016l-0.008,0.016l-0.009,0.013l-0.012,0.013l-0.014,0.009l-0.016,0.008l-0.016,0.004l-0.017,0.001l-3.17,0l-0.017,-0.001l-0.017,-0.004l-0.015,-0.008l-0.014,-0.009l-0.012,-0.013l-0.01,-0.013l-0.007,-0.016l-0.005,-0.016l-0.001,-0.017l0,-3.012l0.001,-0.017l0.005,-0.017l0.007,-0.015l0.01,-0.014l0.012,-0.012l0.014,-0.01l0.015,-0.007l0.017,-0.005l0.017,-0.001l2.568,0l0,-0.812l-2.568,0l-0.017,-0.002l-0.017,-0.004l-0.015,-0.007l-0.014,-0.01l-0.012,-0.012l-0.01,-0.014l-0.007,-0.015l-0.005,-0.017l-0.001,-0.017l0,-2.842l0.001,-0.017l0.005,-0.016l0.007,-0.016l0.01,-0.014l0.012,-0.012l0.014,-0.01l0.015,-0.007l0.017,-0.004l0.017,-0.002l3.17,0l0.017,0.002l0.016,0.004l0.016,0.007l0.014,0.01l0.012,0.012l0.009,0.014l0.008,0.016l0.004,0.016l0.001,0.017l0,1.402l1.006,0l0,-2.318Z" style="fill:#fff;"/><path d="M57.637,44.792l0,-1.782l-0.014,0.029l-0.014,0.029l-0.015,0.028l-0.014,0.028l-0.015,0.028l-0.015,0.028l-0.016,0.027l-0.015,0.027l-0.016,0.027l-0.016,0.027l-0.016,0.026l-0.017,0.027l-0.016,0.026l-0.017,0.025l-0.017,0.026l-0.017,0.025l-0.018,0.025l-0.018,0.025l-0.018,0.025l-0.018,0.024l-0.018,0.024l-0.019,0.024l-0.018,0.024l-0.019,0.023l-0.02,0.023l-0.019,0.023l-0.02,0.023l-0.02,0.022l-0.02,0.023l-0.02,0.022l-0.021,0.021l-0.021,0.022l-0.02,0.021l-0.022,0.021l-0.021,0.021l-0.021,0.021l-0.022,0.02l-0.021,0.02l-0.022,0.02l-0.022,0.02l-0.022,0.019l-0.023,0.019l-0.022,0.019l-0.023,0.019l-0.022,0.019l-0.023,0.018l-0.023,0.018l-0.024,0.018l-0.023,0.017l-0.023,0.018l-0.024,0.017l-0.024,0.016l-0.024,0.017l-0.024,0.016l-0.024,0.017l-0.024,0.016l-0.025,0.015l-0.025,0.016l-0.024,0.015l-0.025,0.015l-0.025,0.015l-0.026,0.014l-0.025,0.014l-0.026,0.014l-0.025,0.014l-0.026,0.014l-0.026,0.013l-0.026,0.013l-0.026,0.013l-0.026,0.013l-0.027,0.012l-0.026,0.013l-0.027,0.012l-0.026,0.012l-0.027,0.011l-0.027,0.012l-0.027,0.011l-0.027,0.011l-0.027,0.011l-0.028,0.01l-0.027,0.011l-0.028,0.01l-0.027,0.01l-0.028,0.009l-0.028,0.01l-0.028,0.009l-0.028,0.009l-0.028,0.009l-0.028,0.008l-0.029,0.009l-0.028,0.008l-0.029,0.008l-0.029,0.008l-0.029,0.007l-0.029,0.007l-0.029,0.007l-0.029,0.007l-0.029,0.007l-0.029,0.006l-0.029,0.006l-0.03,0.006l-0.029,0.006l-0.029,0.006l-0.029,0.005l-0.03,0.005l-0.029,0.005l-0.03,0.005l-0.029,0.004l-0.03,0.004l-0.029,0.004l-0.03,0.004l-0.029,0.004l-0.03,0.003l-0.029,0.003l-0.03,0.003l-0.03,0.003l-0.029,0.003l-0.03,0.002l-0.03,0.002l-0.03,0.002l-0.029,0.001l-0.03,0.002l-0.03,0.001l-0.03,0.001l-0.03,0.001l-0.03,0l-0.03,0.001l-0.03,0l-0.027,0l-0.027,-0.001l-0.027,0l-0.027,0l-0.027,-0.001l-0.026,-0.001l-0.027,-0.001l-0.027,-0.001l-0.026,-0.001l-0.027,-0.001l-0.026,-0.002l-0.026,-0.002l-0.027,-0.001l-0.026,-0.002l-0.026,-0.002l-0.026,-0.002l-0.026,-0.003l-0.026,-0.002l-0.026,-0.003l-0.026,-0.003l-0.025,-0.003l-0.026,-0.003l-0.026,-0.003l-0.025,-0.003l-0.026,-0.004l-0.025,-0.003l-0.026,-0.004l-0.025,-0.004l-0.025,-0.004l-0.025,-0.004l-0.025,-0.004l-0.025,-0.005l-0.025,-0.004l-0.025,-0.005l-0.025,-0.005l-0.025,-0.005l-0.025,-0.005l-0.024,-0.006l-0.025,-0.005l-0.024,-0.006l-0.025,-0.005l-0.024,-0.006l-0.024,-0.006l-0.025,-0.006l-0.024,-0.007l-0.024,-0.006l-0.024,-0.007l-0.024,-0.006l-0.024,-0.007l-0.024,-0.007l-0.023,-0.007l-0.024,-0.008l-0.024,-0.007l-0.023,-0.008l-0.024,-0.008l-0.023,-0.007l-0.024,-0.008l-0.023,-0.009l-0.023,-0.008l-0.023,-0.008l-0.024,-0.009l-0.023,-0.009l-0.023,-0.008l-0.023,-0.009l-0.022,-0.01l-0.023,-0.009l-0.023,-0.009l-0.023,-0.01l-0.022,-0.01l-0.023,-0.01l-0.022,-0.01l-0.022,-0.01l-0.023,-0.011l-0.022,-0.01l-0.022,-0.011l-0.022,-0.011l-0.022,-0.011l-0.022,-0.012l-0.022,-0.011l-0.022,-0.012l-0.022,-0.012l-0.022,-0.012l-0.021,-0.012l-0.022,-0.012l-0.021,-0.013l-0.022,-0.012l-0.021,-0.013l-0.021,-0.013l-0.022,-0.013l-0.021,-0.014l-0.021,-0.013l-0.021,-0.014l-0.021,-0.014l-0.021,-0.014l-0.021,-0.014l-0.021,-0.014l-0.02,-0.015l-0.021,-0.014l-0.02,-0.015l-0.021,-0.015l-0.02,-0.015l-0.021,-0.016l-0.02,-0.015l-0.02,-0.016l-0.02,-0.016l-0.021,-0.016l-0.02,-0.016l-0.02,-0.016l-0.019,-0.017l-0.02,-0.016l-0.02,-0.017l-0.02,-0.017l-0.019,-0.017l-0.02,-0.018l-0.019,-0.017l-0.02,-0.018l-0.019,-0.018l-0.019,-0.018l-0.02,-0.018l-0.019,-0.018l-0.019,-0.019l-0.019,-0.019l-0.019,-0.018l-0.019,-0.019l-0.019,-0.02l-0.018,-0.019l-0.019,-0.02l-0.019,-0.019l-0.018,-0.02l-0.019,-0.02l-0.018,-0.02l-0.018,-0.02l-0.018,-0.021l-0.018,-0.02l-0.017,-0.02l-0.018,-0.021l-0.017,-0.021l-0.018,-0.021l-0.017,-0.021l-0.017,-0.021l-0.017,-0.021l-0.016,-0.021l-0.017,-0.022l-0.016,-0.021l-0.017,-0.022l-0.016,-0.022l-0.016,-0.022l-0.016,-0.022l-0.016,-0.022l-0.015,-0.022l-0.016,-0.022l-0.015,-0.023l-0.015,-0.022l-0.015,-0.023l-0.015,-0.023l-0.015,-0.023l-0.015,-0.023l-0.014,-0.023l-0.015,-0.023l-0.014,-0.024l-0.014,-0.023l-0.014,-0.024l-0.014,-0.023l-0.014,-0.024l-0.013,-0.024l-0.014,-0.024l-0.013,-0.024l-0.013,-0.025l-0.013,-0.024l-0.013,-0.025l-0.013,-0.024l-0.012,-0.025l-0.013,-0.025l-0.012,-0.025l-0.012,-0.025l-0.013,-0.025l-0.011,-0.026l-0.012,-0.025l-0.012,-0.026l-0.011,-0.025l-0.012,-0.026l-0.011,-0.026l-0.011,-0.026l-0.011,-0.026l-0.011,-0.026l-0.011,-0.027l-0.01,-0.026l-0.011,-0.027l-0.01,-0.026l-0.01,-0.027l-0.01,-0.027l-0.01,-0.027l-0.01,-0.027l-0.009,-0.027l-0.01,-0.028l-0.009,-0.027l-0.009,-0.027l-0.009,-0.027l-0.009,-0.028l-0.008,-0.027l-0.009,-0.028l-0.008,-0.027l-0.008,-0.028l-0.008,-0.027l-0.008,-0.028l-0.008,-0.027l-0.008,-0.028l-0.007,-0.028l-0.007,-0.027l-0.007,-0.028l-0.007,-0.028l-0.007,-0.028l-0.007,-0.027l-0.006,-0.028l-0.007,-0.028l-0.006,-0.028l-0.006,-0.028l-0.006,-0.028l-0.006,-0.028l-0.005,-0.029l-0.006,-0.028l-0.005,-0.028l-0.005,-0.028l-0.005,-0.028l-0.005,-0.029l-0.004,-0.028l-0.005,-0.028l-0.004,-0.029l-0.005,-0.028l-0.004,-0.029l-0.004,-0.028l-0.003,-0.029l-0.004,-0.029l-0.003,-0.028l-0.004,-0.029l-0.003,-0.029l-0.003,-0.028l-0.003,-0.029l-0.002,-0.029l-0.003,-0.029l-0.002,-0.029l-0.002,-0.029l-0.002,-0.029l-0.002,-0.029l-0.002,-0.029l-0.002,-0.029l-0.001,-0.029l-0.001,-0.029l-0.002,-0.029l-0.001,-0.03l0,-0.029l-0.001,-0.029l-0.001,-0.029l0,-0.03l0,-0.029l0,-0.03l0,-0.029l0,-0.03l0,-0.03l0.001,-0.029l0.001,-0.029l0,-0.03l0.001,-0.029l0.002,-0.029l0.001,-0.03l0.001,-0.029l0.002,-0.029l0.002,-0.029l0.002,-0.029l0.002,-0.029l0.002,-0.029l0.002,-0.029l0.003,-0.029l0.002,-0.028l0.003,-0.029l0.003,-0.029l0.003,-0.028l0.004,-0.029l0.003,-0.028l0.004,-0.029l0.003,-0.028l0.004,-0.029l0.004,-0.028l0.005,-0.028l0.004,-0.028l0.005,-0.028l0.004,-0.029l0.005,-0.028l0.005,-0.028l0.005,-0.028l0.005,-0.027l0.006,-0.028l0.005,-0.028l0.006,-0.028l0.006,-0.027l0.006,-0.028l0.006,-0.028l0.007,-0.027l0.006,-0.028l0.007,-0.027l0.007,-0.027l0.007,-0.028l0.007,-0.027l0.007,-0.027l0.007,-0.027l0.008,-0.028l0.008,-0.027l0.008,-0.027l0.008,-0.027l0.008,-0.026l0.008,-0.027l0.009,-0.027l0.008,-0.027l0.009,-0.027l0.009,-0.026l0.009,-0.027l0.009,-0.026l0.01,-0.027l0.009,-0.026l0.01,-0.027l0.01,-0.026l0.01,-0.026l0.01,-0.026l0.01,-0.026l0.011,-0.026l0.01,-0.026l0.011,-0.026l0.01,-0.025l0.011,-0.026l0.011,-0.025l0.011,-0.025l0.012,-0.026l0.011,-0.025l0.011,-0.024l0.012,-0.025l0.012,-0.025l0.011,-0.025l0.012,-0.024l0.012,-0.025l0.013,-0.024l0.012,-0.024l0.012,-0.024l0.013,-0.024l0.013,-0.024l0.012,-0.024l0.013,-0.023l0.013,-0.024l0.014,-0.024l0.013,-0.023l0.013,-0.023l0.014,-0.023l0.014,-0.023l0.013,-0.023l0.014,-0.023l0.014,-0.023l0.015,-0.022l0.014,-0.023l0.014,-0.022l0.015,-0.023l0.014,-0.022l0.015,-0.022l0.015,-0.022l0.015,-0.022l0.015,-0.021l0.016,-0.022l0.015,-0.022l0.015,-0.021l0.016,-0.021l0.016,-0.022l0.016,-0.021l0.016,-0.021l0.016,-0.021l0.016,-0.021l0.016,-0.02l0.017,-0.021l0.017,-0.02l0.016,-0.021l0.017,-0.02l0.017,-0.02l0.017,-0.02l0.018,-0.02l0.017,-0.02l0.017,-0.02l0.018,-0.019l0.018,-0.02l0.018,-0.019l0.018,-0.02l0.018,-0.019l0.018,-0.019l0.018,-0.019l0.018,-0.018l0.019,-0.019l0.018,-0.018l0.019,-0.019l0.019,-0.018l0.019,-0.018l0.019,-0.018l0.019,-0.018l0.019,-0.018l0.019,-0.017l0.02,-0.017l0.019,-0.018l0.02,-0.017l0.02,-0.017l0.019,-0.017l0.02,-0.017l0.02,-0.016l0.021,-0.017l0.02,-0.016l0.02,-0.016l0.021,-0.016l0.02,-0.016l0.021,-0.016l0.021,-0.016l0.021,-0.016l0.021,-0.015l0.021,-0.015l0.021,-0.015l0.021,-0.016l0.022,-0.014l0.021,-0.015l0.022,-0.015l0.022,-0.014l0.022,-0.015l0.021,-0.014l0.023,-0.014l0.022,-0.014l0.022,-0.014l0.022,-0.014l0.023,-0.013l0.022,-0.014l0.023,-0.013l0.023,-0.013l0.023,-0.014l0.023,-0.012l0.023,-0.013l0.023,-0.013l0.024,-0.013l0.023,-0.012l0.024,-0.012l0.023,-0.012l0.024,-0.012l0.024,-0.012l0.024,-0.012l0.024,-0.012l0.024,-0.011l0.024,-0.012l0.025,-0.011l0.024,-0.011l0.025,-0.011l0.024,-0.011l0.025,-0.01l0.025,-0.01l0.025,-0.011l0.024,-0.01l0.025,-0.01l0.025,-0.009l0.025,-0.01l0.025,-0.009l0.026,-0.009l0.025,-0.009l0.025,-0.009l0.026,-0.009l0.025,-0.008l0.026,-0.008l0.025,-0.009l0.026,-0.008l0.025,-0.007l0.026,-0.008l0.026,-0.007l0.026,-0.008l0.026,-0.007l0.026,-0.006l0.026,-0.007l0.026,-0.007l0.026,-0.006l0.027,-0.006l0.026,-0.006l0.026,-0.006l0.027,-0.006l0.026,-0.005l0.027,-0.006l0.027,-0.005l0.026,-0.005l0.027,-0.005l0.027,-0.004l0.027,-0.005l0.027,-0.004l0.027,-0.004l0.027,-0.004l0.027,-0.004l0.028,-0.003l0.027,-0.004l0.027,-0.003l0.028,-0.003l0.027,-0.003l0.028,-0.003l0.027,-0.002l0.028,-0.002l0.028,-0.003l0.028,-0.002l0.028,-0.001l0.028,-0.002l0.028,-0.002l0.028,-0.001l0.028,-0.001l0.028,-0.001l0.028,-0.001l0.029,0l0.028,-0.001l0.028,0l0.029,0l0.026,0l0.026,0l0.027,0l0.026,0.001l0.025,0l0.026,0.001l0.026,0.001l0.025,0.001l0.026,0.001l0.025,0.001l0.025,0.001l0.025,0.001l0.025,0.002l0.025,0.001l0.024,0.002l0.025,0.002l0.024,0.002l0.025,0.002l0.024,0.002l0.024,0.002l0.024,0.003l0.024,0.002l0.024,0.003l0.023,0.003l0.024,0.002l0.023,0.003l0.024,0.004l0.023,0.003l0.023,0.003l0.023,0.004l0.023,0.003l0.022,0.004l0.023,0.004l0.022,0.004l0.023,0.004l0.022,0.004l0.022,0.004l0.022,0.004l0.022,0.005l0.022,0.005l0.022,0.004l0.021,0.005l0.022,0.005l0.021,0.005l0.021,0.006l0.021,0.005l0.021,0.005l0.021,0.006l0.021,0.006l0.02,0.005l0.021,0.006l0.02,0.006l0.021,0.007l0.02,0.006l0.02,0.006l0.02,0.007l0.02,0.006l0.019,0.007l0.02,0.007l0.019,0.007l0.02,0.007l0.019,0.007l0.019,0.008l0.019,0.007l0.038,0.015l0.037,0.015l0.037,0.016l0.037,0.016l0.036,0.016l0.036,0.016l0.036,0.016l0.035,0.017l0.035,0.016l0.035,0.017l0.034,0.017l0.034,0.018l0.034,0.017l0.033,0.018l0.033,0.018l0.033,0.018l0.032,0.018l0.032,0.019l0.031,0.018l0.032,0.019l0.03,0.019l0.031,0.02l0.03,0.019l0.03,0.02l0.029,0.02l0.03,0.02l0.028,0.02l0.029,0.021l0.028,0.021l0.028,0.021l0.027,0.021l0.027,0.021l0.027,0.021l0.026,0.022l0.027,0.021l0.025,0.021l0.026,0.021l0.025,0.021l0.024,0.021l0.025,0.021l0.024,0.021l0.024,0.021l0.023,0.021l0.023,0.021l0.023,0.02l0.022,0.021l0.022,0.02l0.022,0.021l0.021,0.02l0.021,0.02l0.021,0.021l0.02,0.02l0.02,0.02l0.02,0.02l0.019,0.02l0.019,0.02l0.019,0.02l0.018,0.02l0.018,0.02l0.018,0.019l0.017,0.02l0.017,0.019l0.016,0.02l0.017,0.019l0.568,0l0,1.043l-1.26,0l-0.012,-0.02l-0.012,-0.021l-0.013,-0.021l-0.013,-0.02l-0.013,-0.02l-0.012,-0.02l-0.014,-0.02l-0.013,-0.02l-0.013,-0.02l-0.014,-0.02l-0.013,-0.019l-0.014,-0.019l-0.014,-0.019l-0.014,-0.019l-0.014,-0.019l-0.014,-0.019l-0.014,-0.019l-0.015,-0.018l-0.014,-0.019l-0.015,-0.018l-0.015,-0.018l-0.015,-0.018l-0.015,-0.017l-0.015,-0.018l-0.015,-0.018l-0.016,-0.017l-0.015,-0.017l-0.016,-0.017l-0.016,-0.017l-0.016,-0.017l-0.016,-0.017l-0.016,-0.016l-0.016,-0.017l-0.017,-0.016l-0.016,-0.016l-0.017,-0.016l-0.017,-0.016l-0.017,-0.016l-0.017,-0.015l-0.017,-0.016l-0.017,-0.015l-0.018,-0.015l-0.017,-0.015l-0.018,-0.015l-0.018,-0.015l-0.018,-0.015l-0.018,-0.014l-0.018,-0.014l-0.018,-0.015l-0.019,-0.014l-0.018,-0.014l-0.019,-0.013l-0.019,-0.014l-0.019,-0.014l-0.019,-0.013l-0.019,-0.013l-0.019,-0.013l-0.02,-0.013l-0.019,-0.013l-0.02,-0.013l-0.02,-0.013l-0.019,-0.012l-0.021,-0.012l-0.02,-0.012l-0.02,-0.012l-0.02,-0.012l-0.021,-0.012l-0.02,-0.011l-0.021,-0.011l-0.02,-0.011l-0.021,-0.011l-0.021,-0.011l-0.021,-0.01l-0.021,-0.01l-0.021,-0.011l-0.021,-0.009l-0.021,-0.01l-0.021,-0.01l-0.022,-0.009l-0.021,-0.009l-0.022,-0.009l-0.021,-0.008l-0.022,-0.009l-0.022,-0.008l-0.021,-0.008l-0.022,-0.008l-0.022,-0.008l-0.022,-0.007l-0.022,-0.008l-0.022,-0.007l-0.023,-0.007l-0.022,-0.006l-0.022,-0.007l-0.023,-0.006l-0.022,-0.007l-0.023,-0.005l-0.023,-0.006l-0.022,-0.006l-0.023,-0.005l-0.023,-0.005l-0.023,-0.005l-0.023,-0.005l-0.023,-0.005l-0.024,-0.004l-0.023,-0.004l-0.023,-0.004l-0.024,-0.004l-0.023,-0.004l-0.024,-0.003l-0.024,-0.003l-0.023,-0.003l-0.024,-0.003l-0.024,-0.003l-0.024,-0.002l-0.024,-0.003l-0.024,-0.002l-0.025,-0.002l-0.024,-0.001l-0.024,-0.002l-0.025,-0.001l-0.024,-0.001l-0.025,-0.001l-0.024,-0.001l-0.025,0l-0.025,-0.001l-0.025,0l-0.025,0l-0.025,0.001l-0.021,0l-0.021,0l-0.021,0l-0.021,0.001l-0.02,0l-0.021,0.001l-0.021,0.001l-0.021,0.001l-0.02,0.001l-0.021,0.002l-0.02,0.001l-0.021,0.002l-0.02,0.001l-0.02,0.002l-0.021,0.002l-0.02,0.003l-0.02,0.002l-0.02,0.002l-0.02,0.003l-0.02,0.003l-0.02,0.003l-0.02,0.003l-0.02,0.003l-0.02,0.003l-0.019,0.003l-0.02,0.004l-0.02,0.004l-0.019,0.004l-0.02,0.004l-0.019,0.004l-0.02,0.004l-0.019,0.004l-0.019,0.005l-0.019,0.005l-0.02,0.004l-0.019,0.005l-0.019,0.006l-0.019,0.005l-0.019,0.005l-0.019,0.006l-0.019,0.005l-0.018,0.006l-0.019,0.006l-0.019,0.006l-0.018,0.007l-0.019,0.006l-0.019,0.006l-0.018,0.007l-0.018,0.007l-0.019,0.007l-0.018,0.007l-0.018,0.007l-0.019,0.008l-0.018,0.007l-0.018,0.008l-0.018,0.007l-0.018,0.008l-0.018,0.008l-0.018,0.009l-0.017,0.008l-0.018,0.008l-0.018,0.009l-0.018,0.009l-0.017,0.009l-0.018,0.009l-0.017,0.009l-0.018,0.009l-0.017,0.009l-0.017,0.01l-0.017,0.009l-0.017,0.01l-0.017,0.01l-0.017,0.009l-0.017,0.01l-0.017,0.01l-0.016,0.01l-0.017,0.011l-0.017,0.01l-0.016,0.01l-0.016,0.011l-0.017,0.01l-0.016,0.011l-0.016,0.011l-0.016,0.011l-0.016,0.011l-0.016,0.011l-0.016,0.011l-0.015,0.011l-0.016,0.011l-0.016,0.012l-0.015,0.011l-0.016,0.012l-0.015,0.012l-0.015,0.012l-0.015,0.012l-0.015,0.012l-0.015,0.012l-0.015,0.012l-0.015,0.012l-0.015,0.013l-0.015,0.012l-0.014,0.013l-0.015,0.013l-0.014,0.012l-0.015,0.013l-0.014,0.013l-0.014,0.013l-0.014,0.014l-0.015,0.013l-0.014,0.013l-0.013,0.014l-0.014,0.013l-0.014,0.014l-0.014,0.014l-0.013,0.014l-0.014,0.014l-0.013,0.014l-0.014,0.014l-0.013,0.014l-0.013,0.015l-0.013,0.014l-0.013,0.015l-0.013,0.014l-0.013,0.015l-0.013,0.015l-0.013,0.015l-0.012,0.015l-0.013,0.015l-0.013,0.015l-0.012,0.016l-0.012,0.015l-0.013,0.016l-0.012,0.015l-0.012,0.016l-0.012,0.015l-0.012,0.016l-0.011,0.016l-0.012,0.016l-0.012,0.016l-0.011,0.016l-0.012,0.016l-0.011,0.016l-0.011,0.016l-0.012,0.016l-0.011,0.017l-0.011,0.016l-0.011,0.017l-0.01,0.016l-0.011,0.017l-0.011,0.017l-0.01,0.017l-0.011,0.017l-0.01,0.016l-0.011,0.017l-0.01,0.018l-0.01,0.017l-0.01,0.017l-0.01,0.017l-0.01,0.018l-0.01,0.017l-0.009,0.018l-0.01,0.017l-0.01,0.018l-0.009,0.018l-0.009,0.017l-0.01,0.018l-0.009,0.018l-0.009,0.018l-0.018,0.037l-0.017,0.036l-0.018,0.037l-0.017,0.037l-0.016,0.037l-0.016,0.038l-0.016,0.038l-0.016,0.038l-0.015,0.039l-0.015,0.039l-0.014,0.039l-0.014,0.039l-0.007,0.02l-0.007,0.02l-0.006,0.02l-0.007,0.02l-0.007,0.02l-0.006,0.02l-0.006,0.02l-0.006,0.02l-0.006,0.02l-0.006,0.02l-0.006,0.02l-0.006,0.02l-0.005,0.02l-0.006,0.021l-0.005,0.02l-0.006,0.02l-0.005,0.02l-0.005,0.021l-0.005,0.02l-0.005,0.021l-0.004,0.02l-0.005,0.021l-0.004,0.02l-0.005,0.021l-0.004,0.02l-0.004,0.021l-0.004,0.021l-0.004,0.02l-0.004,0.021l-0.004,0.021l-0.004,0.021l-0.003,0.021l-0.004,0.021l-0.003,0.021l-0.003,0.02l-0.003,0.021l-0.003,0.021l-0.003,0.022l-0.003,0.021l-0.002,0.021l-0.003,0.021l-0.002,0.021l-0.003,0.021l-0.002,0.022l-0.002,0.021l-0.002,0.021l-0.002,0.022l-0.002,0.021l-0.002,0.022l-0.001,0.021l-0.002,0.022l-0.001,0.021l-0.001,0.022l-0.001,0.021l-0.001,0.022l-0.001,0.022l-0.002,0.043l-0.001,0.044l-0.001,0.043l0,0.044l0,0.025l0,0.024l0.001,0.024l0,0.024l0.001,0.024l0,0.024l0.001,0.024l0.001,0.024l0.001,0.024l0.001,0.024l0.002,0.024l0.001,0.024l0.001,0.023l0.002,0.024l0.002,0.023l0.002,0.024l0.002,0.023l0.002,0.024l0.002,0.023l0.002,0.023l0.003,0.024l0.002,0.023l0.003,0.023l0.003,0.023l0.003,0.023l0.003,0.023l0.003,0.023l0.003,0.023l0.004,0.023l0.003,0.022l0.004,0.023l0.004,0.023l0.004,0.022l0.004,0.023l0.004,0.022l0.004,0.023l0.004,0.022l0.005,0.022l0.005,0.023l0.004,0.022l0.005,0.022l0.005,0.022l0.005,0.022l0.006,0.022l0.005,0.022l0.005,0.022l0.006,0.022l0.006,0.022l0.005,0.021l0.006,0.022l0.007,0.022l0.006,0.021l0.006,0.022l0.006,0.021l0.007,0.021l0.007,0.022l0.006,0.021l0.007,0.021l0.007,0.021l0.008,0.022l0.007,0.021l0.007,0.021l0.008,0.021l0.007,0.021l0.016,0.041l0.016,0.041l0.016,0.041l0.016,0.04l0.017,0.039l0.016,0.039l0.017,0.039l0.009,0.019l0.009,0.019l0.009,0.019l0.008,0.018l0.009,0.019l0.009,0.018l0.009,0.019l0.009,0.018l0.01,0.018l0.009,0.018l0.009,0.018l0.01,0.018l0.009,0.017l0.009,0.018l0.01,0.017l0.01,0.017l0.009,0.017l0.01,0.017l0.01,0.017l0.01,0.017l0.01,0.017l0.01,0.016l0.01,0.017l0.01,0.016l0.01,0.016l0.011,0.016l0.01,0.016l0.01,0.016l0.011,0.015l0.01,0.016l0.011,0.015l0.011,0.016l0.01,0.015l0.011,0.015l0.011,0.015l0.011,0.014l0.011,0.015l0.011,0.015l0.011,0.014l0.012,0.014l0.011,0.015l0.011,0.014l0.012,0.013l0.011,0.014l0.012,0.014l0.011,0.014l0.012,0.013l0.012,0.013l0.011,0.013l0.012,0.013l0.024,0.026l0.025,0.026l0.024,0.025l0.025,0.025l0.026,0.025l0.025,0.024l0.026,0.025l0.027,0.024l0.027,0.023l0.027,0.023l0.027,0.024l0.028,0.022l0.028,0.023l0.029,0.022l0.029,0.022l0.029,0.022l0.029,0.021l0.03,0.021l0.031,0.021l0.03,0.02l0.031,0.021l0.031,0.02l0.032,0.019l0.032,0.02l0.032,0.019l0.033,0.019l0.033,0.018l0.034,0.019l0.033,0.018l0.034,0.017l0.035,0.018l0.035,0.017l0.017,0.008l0.018,0.009l0.017,0.008l0.018,0.008l0.018,0.008l0.018,0.008l0.018,0.007l0.017,0.008l0.018,0.007l0.019,0.007l0.018,0.008l0.018,0.007l0.018,0.006l0.018,0.007l0.019,0.007l0.018,0.006l0.018,0.006l0.019,0.007l0.019,0.006l0.018,0.006l0.019,0.005l0.019,0.006l0.018,0.006l0.019,0.005l0.019,0.005l0.019,0.005l0.019,0.005l0.019,0.005l0.019,0.005l0.02,0.005l0.019,0.004l0.019,0.004l0.02,0.005l0.019,0.004l0.02,0.003l0.019,0.004l0.02,0.004l0.02,0.003l0.019,0.004l0.02,0.003l0.02,0.003l0.02,0.003l0.02,0.003l0.02,0.003l0.02,0.002l0.02,0.003l0.02,0.002l0.021,0.002l0.02,0.002l0.02,0.002l0.021,0.002l0.02,0.002l0.021,0.001l0.021,0.002l0.02,0.001l0.021,0.001l0.021,0.001l0.021,0.001l0.021,0.001l0.02,0l0.022,0.001l0.021,0l0.021,0l0.021,0l0.035,0l0.035,0l0.035,-0.001l0.034,-0.001l0.034,-0.001l0.034,-0.001l0.034,-0.002l0.034,-0.002l0.033,-0.002l0.034,-0.003l0.033,-0.003l0.033,-0.003l0.032,-0.003l0.033,-0.004l0.032,-0.004l0.032,-0.004l0.032,-0.004l0.032,-0.005l0.031,-0.005l0.032,-0.005l0.031,-0.006l0.031,-0.005l0.03,-0.006l0.031,-0.007l0.03,-0.006l0.03,-0.007l0.03,-0.007l0.03,-0.007l0.029,-0.008l0.03,-0.008l0.029,-0.008l0.029,-0.009l0.029,-0.008l0.028,-0.009l0.029,-0.009l0.028,-0.01l0.028,-0.01l0.027,-0.01l0.028,-0.01l0.027,-0.011l0.027,-0.01l0.027,-0.012l0.027,-0.011l0.027,-0.012l0.026,-0.011l0.026,-0.013l0.026,-0.012l0.026,-0.013l0.026,-0.013l0.025,-0.013l0.025,-0.013l0.025,-0.014l0.025,-0.014l0.025,-0.015l0.024,-0.014l0.024,-0.015l0.024,-0.015l0.024,-0.016l0.024,-0.015l0.023,-0.016l0.023,-0.016l0.023,-0.017l0.023,-0.016l0.023,-0.017l0.022,-0.018l0.022,-0.017l0.022,-0.018l0.022,-0.018l0.022,-0.019l0.021,-0.019l0.021,-0.019l0.021,-0.019l0.021,-0.02l0.02,-0.02l0.021,-0.02l0.02,-0.02l0.02,-0.021l0.019,-0.021l0.02,-0.022l0.019,-0.022l0.019,-0.022l0.019,-0.022l0.018,-0.023l0.019,-0.023l0.018,-0.023l0.018,-0.023l0.018,-0.024l0.017,-0.024l0.018,-0.025l0.017,-0.025l0.017,-0.025l0.016,-0.025l0.017,-0.026l0.016,-0.026l0.016,-0.026l0.016,-0.026l0.016,-0.027l0.015,-0.027l0.015,-0.028l0.015,-0.027l0.015,-0.029l0.015,-0.028l0.014,-0.028l0.014,-0.029l0.014,-0.03l0.014,-0.029l0.013,-0.03l0.014,-0.03l0.013,-0.031l0.013,-0.03l0.012,-0.031l0.013,-0.032l0.012,-0.031l0.012,-0.032l0.012,-0.032l0.012,-0.033l0.011,-0.033l0.011,-0.033l0.011,-0.033l0.011,-0.034l0.01,-0.034l0.011,-0.034l0.01,-0.035l0.01,-0.035l0.01,-0.035l0.009,-0.036l0.009,-0.035l0.009,-0.036l-2.484,0l0,-1.008l3.756,0l0,4.26l-1.09,0Zm0.992,-4.162l-3.56,0l0,0.812l2.386,0l0.018,0.001l0.017,0.005l0.016,0.008l0.015,0.01l0.012,0.013l0.009,0.015l0.007,0.017l0.004,0.017l0,0.018l-0.003,0.017l-0.009,0.037l-0.009,0.036l-0.01,0.037l-0.01,0.036l-0.01,0.035l-0.01,0.036l-0.011,0.035l-0.011,0.034l-0.011,0.035l-0.011,0.034l-0.011,0.034l-0.012,0.034l-0.012,0.033l-0.012,0.033l-0.012,0.033l-0.013,0.032l-0.013,0.032l-0.013,0.032l-0.013,0.032l-0.014,0.031l-0.013,0.031l-0.014,0.031l-0.014,0.03l-0.015,0.03l-0.014,0.03l-0.015,0.03l-0.015,0.029l-0.015,0.029l-0.016,0.028l-0.016,0.029l-0.016,0.028l-0.016,0.027l-0.016,0.028l-0.017,0.027l-0.017,0.027l-0.017,0.026l-0.017,0.027l-0.018,0.026l-0.017,0.025l-0.018,0.026l-0.018,0.025l-0.019,0.024l-0.019,0.025l-0.018,0.024l-0.02,0.024l-0.019,0.024l-0.02,0.023l-0.019,0.023l-0.02,0.022l-0.021,0.023l-0.02,0.022l-0.021,0.022l-0.021,0.021l-0.021,0.021l-0.021,0.021l-0.022,0.02l-0.022,0.021l-0.022,0.02l-0.022,0.019l-0.023,0.019l-0.022,0.019l-0.023,0.019l-0.024,0.018l-0.023,0.018l-0.024,0.018l-0.023,0.018l-0.024,0.017l-0.024,0.017l-0.025,0.016l-0.024,0.016l-0.025,0.016l-0.025,0.016l-0.025,0.016l-0.026,0.015l-0.025,0.015l-0.026,0.014l-0.026,0.015l-0.026,0.014l-0.027,0.013l-0.026,0.014l-0.027,0.013l-0.027,0.013l-0.027,0.013l-0.027,0.012l-0.028,0.012l-0.028,0.012l-0.028,0.011l-0.028,0.012l-0.028,0.01l-0.029,0.011l-0.029,0.011l-0.029,0.01l-0.029,0.009l-0.029,0.01l-0.03,0.009l-0.029,0.009l-0.03,0.009l-0.03,0.008l-0.031,0.009l-0.03,0.007l-0.031,0.008l-0.031,0.007l-0.031,0.007l-0.031,0.007l-0.031,0.007l-0.032,0.006l-0.032,0.006l-0.032,0.005l-0.032,0.006l-0.032,0.005l-0.033,0.005l-0.033,0.004l-0.033,0.004l-0.033,0.004l-0.033,0.004l-0.034,0.004l-0.034,0.003l-0.033,0.003l-0.035,0.002l-0.034,0.003l-0.034,0.002l-0.035,0.001l-0.035,0.002l-0.035,0.001l-0.035,0.001l-0.036,0.001l-0.035,0l-0.036,0l-0.022,0l-0.022,0l-0.021,0l-0.022,-0.001l-0.022,0l-0.021,-0.001l-0.022,-0.001l-0.021,-0.001l-0.021,-0.001l-0.022,-0.002l-0.021,-0.001l-0.021,-0.002l-0.021,-0.001l-0.022,-0.002l-0.021,-0.002l-0.021,-0.002l-0.021,-0.003l-0.02,-0.002l-0.021,-0.002l-0.021,-0.003l-0.021,-0.003l-0.02,-0.003l-0.021,-0.003l-0.02,-0.003l-0.021,-0.004l-0.02,-0.003l-0.021,-0.004l-0.02,-0.004l-0.02,-0.003l-0.02,-0.005l-0.021,-0.004l-0.02,-0.004l-0.02,-0.005l-0.02,-0.004l-0.02,-0.005l-0.019,-0.005l-0.02,-0.005l-0.02,-0.005l-0.02,-0.005l-0.019,-0.006l-0.02,-0.005l-0.019,-0.006l-0.02,-0.006l-0.019,-0.006l-0.019,-0.006l-0.02,-0.006l-0.019,-0.007l-0.019,-0.006l-0.019,-0.007l-0.019,-0.007l-0.019,-0.007l-0.019,-0.007l-0.019,-0.007l-0.019,-0.008l-0.018,-0.007l-0.019,-0.008l-0.019,-0.008l-0.018,-0.007l-0.019,-0.009l-0.018,-0.008l-0.018,-0.008l-0.019,-0.009l-0.018,-0.008l-0.018,-0.009l-0.036,-0.018l-0.035,-0.018l-0.035,-0.018l-0.035,-0.018l-0.034,-0.019l-0.034,-0.019l-0.034,-0.02l-0.033,-0.019l-0.033,-0.02l-0.033,-0.021l-0.032,-0.02l-0.032,-0.021l-0.031,-0.021l-0.032,-0.022l-0.03,-0.021l-0.031,-0.022l-0.03,-0.023l-0.03,-0.022l-0.029,-0.023l-0.029,-0.024l-0.029,-0.023l-0.029,-0.024l-0.028,-0.024l-0.014,-0.012l-0.013,-0.012l-0.014,-0.013l-0.014,-0.012l-0.013,-0.013l-0.014,-0.012l-0.013,-0.013l-0.013,-0.012l-0.013,-0.013l-0.013,-0.013l-0.013,-0.013l-0.013,-0.013l-0.013,-0.013l-0.013,-0.013l-0.013,-0.013l-0.012,-0.014l-0.013,-0.013l-0.012,-0.013l-0.012,-0.014l-0.013,-0.014l-0.012,-0.014l-0.012,-0.014l-0.012,-0.014l-0.012,-0.014l-0.012,-0.014l-0.012,-0.015l-0.012,-0.014l-0.011,-0.015l-0.012,-0.015l-0.011,-0.015l-0.012,-0.015l-0.011,-0.015l-0.012,-0.015l-0.011,-0.016l-0.011,-0.015l-0.011,-0.016l-0.011,-0.016l-0.011,-0.016l-0.011,-0.016l-0.011,-0.016l-0.011,-0.016l-0.011,-0.017l-0.01,-0.016l-0.011,-0.017l-0.01,-0.017l-0.011,-0.017l-0.01,-0.017l-0.01,-0.017l-0.01,-0.017l-0.011,-0.018l-0.01,-0.017l-0.01,-0.018l-0.01,-0.017l-0.009,-0.018l-0.01,-0.018l-0.01,-0.018l-0.01,-0.019l-0.009,-0.018l-0.01,-0.018l-0.009,-0.019l-0.009,-0.019l-0.01,-0.019l-0.009,-0.019l-0.009,-0.019l-0.009,-0.019l-0.009,-0.019l-0.009,-0.02l-0.009,-0.019l-0.017,-0.04l-0.018,-0.04l-0.016,-0.04l-0.017,-0.041l-0.017,-0.041l-0.016,-0.042l-0.015,-0.043l-0.008,-0.021l-0.008,-0.022l-0.008,-0.021l-0.007,-0.022l-0.007,-0.021l-0.008,-0.022l-0.007,-0.022l-0.007,-0.022l-0.007,-0.022l-0.006,-0.022l-0.007,-0.022l-0.006,-0.022l-0.007,-0.022l-0.006,-0.022l-0.006,-0.022l-0.006,-0.022l-0.006,-0.023l-0.006,-0.022l-0.005,-0.022l-0.006,-0.023l-0.005,-0.022l-0.005,-0.023l-0.005,-0.023l-0.005,-0.022l-0.005,-0.023l-0.005,-0.023l-0.005,-0.023l-0.004,-0.023l-0.004,-0.023l-0.005,-0.023l-0.004,-0.023l-0.004,-0.023l-0.004,-0.023l-0.003,-0.023l-0.004,-0.024l-0.003,-0.023l-0.004,-0.023l-0.003,-0.024l-0.003,-0.023l-0.003,-0.024l-0.003,-0.023l-0.003,-0.024l-0.003,-0.024l-0.002,-0.024l-0.002,-0.023l-0.003,-0.024l-0.002,-0.024l-0.002,-0.024l-0.002,-0.024l-0.002,-0.024l-0.001,-0.024l-0.002,-0.024l-0.001,-0.025l-0.002,-0.024l-0.001,-0.024l-0.001,-0.025l-0.001,-0.024l0,-0.025l-0.001,-0.024l-0.001,-0.025l0,-0.024l0,-0.025l-0.001,-0.025l0,-0.025l0.001,-0.045l0,-0.044l0.001,-0.045l0.002,-0.044l0.001,-0.023l0.001,-0.022l0.001,-0.022l0.001,-0.022l0.002,-0.022l0.001,-0.022l0.002,-0.022l0.002,-0.022l0.001,-0.022l0.002,-0.022l0.002,-0.021l0.003,-0.022l0.002,-0.022l0.002,-0.022l0.003,-0.022l0.002,-0.021l0.003,-0.022l0.003,-0.021l0.003,-0.022l0.003,-0.022l0.003,-0.021l0.003,-0.022l0.004,-0.021l0.003,-0.021l0.004,-0.022l0.004,-0.021l0.004,-0.021l0.004,-0.022l0.004,-0.021l0.004,-0.021l0.004,-0.021l0.004,-0.021l0.005,-0.022l0.005,-0.021l0.004,-0.021l0.005,-0.021l0.005,-0.021l0.005,-0.02l0.005,-0.021l0.006,-0.021l0.005,-0.021l0.006,-0.021l0.005,-0.021l0.006,-0.02l0.006,-0.021l0.006,-0.021l0.006,-0.02l0.006,-0.021l0.006,-0.02l0.007,-0.021l0.006,-0.02l0.007,-0.021l0.007,-0.02l0.007,-0.021l0.006,-0.02l0.008,-0.02l0.014,-0.041l0.015,-0.04l0.015,-0.039l0.015,-0.04l0.016,-0.039l0.017,-0.039l0.016,-0.039l0.017,-0.038l0.017,-0.038l0.018,-0.038l0.018,-0.037l0.018,-0.037l0.01,-0.019l0.009,-0.018l0.01,-0.019l0.009,-0.018l0.01,-0.018l0.01,-0.018l0.01,-0.019l0.01,-0.018l0.01,-0.017l0.01,-0.018l0.01,-0.018l0.011,-0.018l0.01,-0.017l0.01,-0.018l0.011,-0.017l0.011,-0.018l0.011,-0.017l0.01,-0.018l0.011,-0.017l0.011,-0.017l0.012,-0.017l0.011,-0.017l0.011,-0.017l0.012,-0.017l0.011,-0.016l0.012,-0.017l0.011,-0.017l0.012,-0.016l0.012,-0.017l0.012,-0.016l0.012,-0.016l0.012,-0.017l0.012,-0.016l0.013,-0.016l0.012,-0.016l0.013,-0.016l0.012,-0.016l0.013,-0.016l0.013,-0.015l0.012,-0.016l0.013,-0.016l0.013,-0.015l0.014,-0.016l0.013,-0.015l0.013,-0.015l0.013,-0.015l0.014,-0.015l0.014,-0.015l0.013,-0.015l0.014,-0.015l0.014,-0.015l0.014,-0.014l0.013,-0.014l0.015,-0.015l0.014,-0.014l0.014,-0.014l0.014,-0.014l0.015,-0.014l0.014,-0.014l0.015,-0.014l0.014,-0.013l0.015,-0.014l0.015,-0.013l0.014,-0.014l0.015,-0.013l0.015,-0.013l0.016,-0.013l0.015,-0.013l0.015,-0.013l0.015,-0.013l0.016,-0.012l0.015,-0.013l0.016,-0.012l0.016,-0.012l0.015,-0.013l0.016,-0.012l0.016,-0.012l0.016,-0.012l0.016,-0.012l0.016,-0.011l0.017,-0.012l0.016,-0.011l0.016,-0.012l0.017,-0.011l0.016,-0.011l0.017,-0.012l0.017,-0.011l0.017,-0.011l0.016,-0.01l0.017,-0.011l0.017,-0.011l0.018,-0.01l0.017,-0.011l0.017,-0.01l0.017,-0.01l0.018,-0.01l0.017,-0.01l0.018,-0.01l0.018,-0.01l0.017,-0.01l0.018,-0.009l0.018,-0.01l0.018,-0.009l0.018,-0.009l0.019,-0.01l0.018,-0.009l0.018,-0.009l0.019,-0.009l0.018,-0.008l0.019,-0.009l0.018,-0.008l0.019,-0.008l0.019,-0.008l0.019,-0.008l0.018,-0.008l0.019,-0.008l0.019,-0.007l0.019,-0.008l0.019,-0.007l0.019,-0.007l0.02,-0.007l0.019,-0.007l0.019,-0.006l0.02,-0.007l0.019,-0.006l0.019,-0.006l0.02,-0.006l0.019,-0.006l0.02,-0.006l0.02,-0.005l0.019,-0.006l0.02,-0.005l0.02,-0.005l0.02,-0.005l0.02,-0.005l0.02,-0.005l0.02,-0.005l0.02,-0.004l0.02,-0.004l0.021,-0.004l0.02,-0.004l0.02,-0.004l0.021,-0.004l0.02,-0.003l0.02,-0.004l0.021,-0.003l0.021,-0.003l0.02,-0.003l0.021,-0.003l0.021,-0.003l0.02,-0.002l0.021,-0.003l0.021,-0.002l0.021,-0.002l0.021,-0.002l0.021,-0.002l0.021,-0.002l0.022,-0.001l0.021,-0.001l0.021,-0.002l0.021,-0.001l0.022,-0.001l0.021,0l0.022,-0.001l0.021,-0.001l0.022,0l0.021,0l0.021,0l0.025,-0.001l0.026,0l0.026,0.001l0.025,0l0.026,0l0.025,0.001l0.026,0.001l0.025,0.001l0.025,0.001l0.026,0.002l0.025,0.002l0.025,0.002l0.025,0.002l0.024,0.002l0.025,0.003l0.025,0.002l0.025,0.003l0.024,0.004l0.025,0.003l0.024,0.003l0.024,0.004l0.025,0.004l0.024,0.004l0.024,0.005l0.024,0.004l0.024,0.005l0.024,0.005l0.024,0.005l0.024,0.005l0.023,0.006l0.024,0.006l0.024,0.006l0.023,0.006l0.023,0.006l0.024,0.007l0.023,0.007l0.023,0.007l0.023,0.007l0.023,0.007l0.023,0.008l0.023,0.008l0.023,0.008l0.022,0.008l0.023,0.008l0.023,0.009l0.022,0.009l0.022,0.009l0.023,0.009l0.022,0.009l0.022,0.01l0.022,0.01l0.022,0.01l0.022,0.01l0.022,0.01l0.022,0.011l0.021,0.011l0.022,0.011l0.021,0.011l0.022,0.011l0.021,0.012l0.021,0.012l0.021,0.012l0.021,0.012l0.021,0.013l0.021,0.012l0.021,0.013l0.021,0.013l0.02,0.013l0.02,0.013l0.021,0.013l0.02,0.013l0.02,0.014l0.019,0.014l0.02,0.013l0.02,0.014l0.019,0.015l0.019,0.014l0.019,0.014l0.02,0.015l0.018,0.014l0.019,0.015l0.019,0.015l0.018,0.015l0.019,0.016l0.018,0.015l0.018,0.016l0.018,0.015l0.018,0.016l0.018,0.016l0.018,0.016l0.017,0.017l0.018,0.016l0.017,0.016l0.017,0.017l0.017,0.017l0.017,0.017l0.016,0.017l0.017,0.017l0.017,0.018l0.016,0.017l0.016,0.018l0.016,0.018l0.016,0.018l0.016,0.018l0.016,0.018l0.015,0.018l0.016,0.019l0.015,0.019l0.015,0.018l0.015,0.019l0.015,0.019l0.015,0.02l0.015,0.019l0.014,0.019l0.015,0.02l0.014,0.02l0.014,0.02l0.014,0.02l0.014,0.02l0.014,0.02l0.013,0.021l0.014,0.02l0.013,0.021l0.013,0.021l0.013,0.021l0.01,0.015l1.106,0l0,-0.847l-0.47,0l-0.017,-0.001l-0.017,-0.005l-0.015,-0.007l-0.014,-0.01l-0.012,-0.012l-0.016,-0.019l-0.016,-0.019l-0.017,-0.019l-0.017,-0.019l-0.017,-0.019l-0.017,-0.019l-0.018,-0.019l-0.018,-0.02l-0.019,-0.019l-0.018,-0.02l-0.02,-0.019l-0.019,-0.02l-0.02,-0.02l-0.02,-0.019l-0.021,-0.02l-0.021,-0.02l-0.021,-0.02l-0.021,-0.02l-0.022,-0.021l-0.023,-0.02l-0.022,-0.02l-0.023,-0.021l-0.024,-0.02l-0.023,-0.021l-0.024,-0.02l-0.024,-0.021l-0.025,-0.021l-0.025,-0.02l-0.026,-0.021l-0.025,-0.021l-0.026,-0.021l-0.027,-0.021l-0.026,-0.021l-0.027,-0.021l-0.026,-0.02l-0.028,-0.02l-0.027,-0.02l-0.028,-0.02l-0.029,-0.019l-0.028,-0.02l-0.029,-0.019l-0.03,-0.019l-0.03,-0.019l-0.03,-0.018l-0.03,-0.019l-0.031,-0.018l-0.031,-0.018l-0.031,-0.018l-0.032,-0.017l-0.032,-0.018l-0.033,-0.017l-0.033,-0.017l-0.033,-0.017l-0.033,-0.017l-0.034,-0.017l-0.034,-0.016l-0.035,-0.016l-0.035,-0.016l-0.035,-0.016l-0.036,-0.016l-0.036,-0.015l-0.036,-0.015l-0.037,-0.015l-0.037,-0.015l-0.018,-0.007l-0.019,-0.007l-0.018,-0.007l-0.019,-0.007l-0.019,-0.007l-0.019,-0.006l-0.019,-0.007l-0.019,-0.006l-0.019,-0.007l-0.02,-0.006l-0.019,-0.006l-0.02,-0.006l-0.019,-0.006l-0.02,-0.005l-0.02,-0.006l-0.02,-0.006l-0.021,-0.005l-0.02,-0.005l-0.021,-0.005l-0.02,-0.006l-0.021,-0.005l-0.021,-0.004l-0.021,-0.005l-0.021,-0.005l-0.021,-0.004l-0.021,-0.005l-0.022,-0.004l-0.021,-0.004l-0.022,-0.004l-0.022,-0.004l-0.022,-0.004l-0.022,-0.004l-0.022,-0.003l-0.022,-0.004l-0.022,-0.003l-0.023,-0.003l-0.023,-0.003l-0.022,-0.004l-0.023,-0.002l-0.023,-0.003l-0.023,-0.003l-0.024,-0.003l-0.023,-0.002l-0.023,-0.002l-0.024,-0.003l-0.024,-0.002l-0.024,-0.002l-0.023,-0.002l-0.025,-0.001l-0.024,-0.002l-0.024,-0.002l-0.024,-0.001l-0.025,-0.001l-0.025,-0.002l-0.024,-0.001l-0.025,-0.001l-0.025,-0.001l-0.026,0l-0.025,-0.001l-0.025,0l-0.026,-0.001l-0.025,0l-0.026,0l-0.026,0l-0.028,0l-0.028,0l-0.028,0l-0.027,0.001l-0.028,0.001l-0.028,0.001l-0.027,0.001l-0.028,0.001l-0.027,0.002l-0.027,0.001l-0.028,0.002l-0.027,0.002l-0.027,0.002l-0.027,0.002l-0.027,0.003l-0.027,0.002l-0.027,0.003l-0.027,0.003l-0.026,0.003l-0.027,0.004l-0.027,0.003l-0.026,0.004l-0.027,0.004l-0.026,0.004l-0.026,0.004l-0.027,0.004l-0.026,0.005l-0.026,0.004l-0.026,0.005l-0.026,0.005l-0.026,0.006l-0.026,0.005l-0.026,0.005l-0.026,0.006l-0.025,0.006l-0.026,0.006l-0.025,0.006l-0.026,0.007l-0.025,0.006l-0.026,0.007l-0.025,0.007l-0.025,0.007l-0.025,0.007l-0.026,0.008l-0.025,0.007l-0.025,0.008l-0.025,0.008l-0.024,0.008l-0.025,0.008l-0.025,0.008l-0.025,0.009l-0.024,0.009l-0.025,0.009l-0.024,0.009l-0.025,0.009l-0.024,0.01l-0.024,0.009l-0.025,0.01l-0.024,0.01l-0.024,0.01l-0.024,0.01l-0.024,0.011l-0.024,0.01l-0.024,0.011l-0.023,0.011l-0.024,0.011l-0.024,0.012l-0.023,0.011l-0.024,0.011l-0.023,0.012l-0.023,0.012l-0.023,0.012l-0.023,0.012l-0.023,0.012l-0.023,0.012l-0.023,0.012l-0.022,0.013l-0.023,0.013l-0.022,0.012l-0.023,0.013l-0.022,0.013l-0.022,0.013l-0.022,0.014l-0.022,0.013l-0.021,0.014l-0.022,0.013l-0.021,0.014l-0.022,0.014l-0.021,0.014l-0.021,0.014l-0.022,0.015l-0.021,0.014l-0.021,0.015l-0.02,0.014l-0.021,0.015l-0.021,0.015l-0.02,0.015l-0.02,0.015l-0.021,0.016l-0.02,0.015l-0.02,0.016l-0.02,0.015l-0.02,0.016l-0.02,0.016l-0.019,0.016l-0.02,0.017l-0.019,0.016l-0.02,0.016l-0.019,0.017l-0.019,0.017l-0.019,0.017l-0.019,0.017l-0.019,0.017l-0.019,0.017l-0.018,0.017l-0.019,0.018l-0.018,0.018l-0.019,0.017l-0.018,0.018l-0.018,0.018l-0.018,0.018l-0.018,0.019l-0.018,0.018l-0.017,0.019l-0.018,0.018l-0.018,0.019l-0.017,0.019l-0.017,0.019l-0.017,0.019l-0.018,0.02l-0.017,0.019l-0.016,0.02l-0.017,0.019l-0.017,0.02l-0.016,0.02l-0.017,0.02l-0.016,0.02l-0.016,0.02l-0.016,0.02l-0.016,0.02l-0.016,0.021l-0.015,0.02l-0.016,0.021l-0.015,0.021l-0.015,0.021l-0.016,0.021l-0.015,0.021l-0.015,0.021l-0.014,0.021l-0.015,0.021l-0.015,0.022l-0.014,0.021l-0.014,0.022l-0.015,0.022l-0.014,0.022l-0.014,0.022l-0.014,0.022l-0.013,0.022l-0.014,0.023l-0.013,0.022l-0.014,0.022l-0.013,0.023l-0.013,0.023l-0.013,0.023l-0.013,0.023l-0.013,0.023l-0.012,0.023l-0.013,0.023l-0.012,0.024l-0.013,0.023l-0.012,0.024l-0.012,0.023l-0.012,0.024l-0.012,0.024l-0.011,0.024l-0.012,0.024l-0.011,0.024l-0.012,0.025l-0.011,0.024l-0.011,0.025l-0.011,0.024l-0.011,0.025l-0.011,0.025l-0.01,0.025l-0.011,0.025l-0.01,0.025l-0.011,0.025l-0.01,0.026l-0.01,0.025l-0.01,0.026l-0.009,0.026l-0.01,0.025l-0.01,0.026l-0.009,0.026l-0.009,0.026l-0.009,0.026l-0.009,0.026l-0.009,0.026l-0.009,0.026l-0.008,0.027l-0.008,0.026l-0.009,0.026l-0.008,0.027l-0.008,0.026l-0.007,0.027l-0.008,0.026l-0.007,0.027l-0.008,0.026l-0.007,0.027l-0.007,0.027l-0.006,0.026l-0.007,0.027l-0.007,0.027l-0.006,0.027l-0.006,0.027l-0.006,0.027l-0.006,0.027l-0.006,0.027l-0.006,0.028l-0.005,0.027l-0.005,0.027l-0.006,0.027l-0.005,0.028l-0.005,0.027l-0.004,0.028l-0.005,0.027l-0.004,0.028l-0.005,0.028l-0.004,0.027l-0.004,0.028l-0.004,0.028l-0.003,0.028l-0.004,0.028l-0.003,0.028l-0.003,0.028l-0.003,0.028l-0.003,0.028l-0.003,0.028l-0.003,0.028l-0.002,0.029l-0.003,0.028l-0.002,0.028l-0.002,0.029l-0.002,0.028l-0.001,0.029l-0.002,0.028l-0.001,0.029l-0.002,0.029l-0.001,0.028l-0.001,0.029l-0.001,0.029l0,0.029l-0.001,0.029l0,0.029l0,0.029l0,0.029l0,0.029l0,0.029l0,0.029l0.001,0.029l0,0.029l0.001,0.028l0.001,0.029l0.001,0.029l0.002,0.028l0.001,0.029l0.002,0.029l0.001,0.028l0.002,0.029l0.002,0.028l0.002,0.029l0.003,0.028l0.002,0.028l0.003,0.029l0.003,0.028l0.003,0.028l0.003,0.028l0.003,0.028l0.003,0.029l0.004,0.028l0.003,0.028l0.004,0.028l0.004,0.028l0.004,0.028l0.005,0.027l0.004,0.028l0.005,0.028l0.004,0.028l0.005,0.028l0.005,0.027l0.006,0.028l0.005,0.028l0.005,0.027l0.006,0.028l0.006,0.027l0.006,0.028l0.006,0.027l0.006,0.028l0.006,0.027l0.007,0.027l0.007,0.028l0.006,0.027l0.007,0.027l0.008,0.027l0.007,0.028l0.007,0.027l0.008,0.027l0.008,0.027l0.008,0.027l0.008,0.027l0.008,0.027l0.008,0.027l0.009,0.026l0.008,0.027l0.009,0.027l0.009,0.027l0.009,0.027l0.009,0.026l0.01,0.027l0.009,0.027l0.01,0.026l0.01,0.026l0.01,0.027l0.01,0.026l0.01,0.026l0.01,0.026l0.011,0.026l0.01,0.025l0.011,0.026l0.011,0.025l0.011,0.026l0.011,0.025l0.011,0.025l0.012,0.025l0.011,0.025l0.012,0.025l0.012,0.024l0.012,0.025l0.012,0.024l0.012,0.025l0.012,0.024l0.013,0.024l0.012,0.024l0.013,0.024l0.013,0.024l0.013,0.023l0.013,0.024l0.013,0.023l0.014,0.023l0.013,0.024l0.014,0.023l0.014,0.023l0.014,0.023l0.014,0.022l0.014,0.023l0.014,0.022l0.015,0.023l0.014,0.022l0.015,0.022l0.015,0.022l0.015,0.022l0.015,0.022l0.015,0.022l0.016,0.021l0.015,0.022l0.016,0.021l0.016,0.021l0.016,0.022l0.016,0.021l0.016,0.021l0.016,0.02l0.017,0.021l0.016,0.021l0.017,0.02l0.017,0.02l0.017,0.021l0.017,0.02l0.017,0.02l0.018,0.02l0.017,0.02l0.018,0.019l0.018,0.02l0.018,0.019l0.018,0.02l0.018,0.019l0.018,0.019l0.018,0.019l0.019,0.019l0.018,0.018l0.019,0.019l0.018,0.018l0.019,0.018l0.019,0.018l0.019,0.018l0.018,0.017l0.019,0.018l0.019,0.017l0.019,0.017l0.019,0.017l0.02,0.017l0.019,0.017l0.019,0.016l0.019,0.016l0.02,0.016l0.019,0.016l0.02,0.016l0.019,0.016l0.02,0.015l0.02,0.015l0.019,0.015l0.02,0.015l0.02,0.015l0.02,0.015l0.02,0.014l0.02,0.014l0.02,0.015l0.021,0.014l0.02,0.013l0.02,0.014l0.021,0.013l0.02,0.014l0.021,0.013l0.02,0.013l0.021,0.013l0.021,0.012l0.02,0.013l0.021,0.012l0.021,0.012l0.021,0.012l0.021,0.012l0.021,0.012l0.021,0.011l0.021,0.011l0.022,0.011l0.021,0.011l0.022,0.011l0.021,0.011l0.022,0.011l0.021,0.01l0.022,0.01l0.022,0.01l0.021,0.01l0.022,0.01l0.022,0.009l0.022,0.01l0.022,0.009l0.022,0.009l0.023,0.009l0.022,0.008l0.022,0.009l0.023,0.009l0.022,0.008l0.023,0.008l0.023,0.008l0.022,0.008l0.023,0.008l0.023,0.008l0.023,0.007l0.023,0.007l0.023,0.008l0.023,0.007l0.023,0.007l0.024,0.007l0.023,0.006l0.023,0.007l0.024,0.006l0.023,0.007l0.024,0.006l0.023,0.006l0.024,0.006l0.024,0.005l0.024,0.006l0.024,0.005l0.024,0.006l0.024,0.005l0.024,0.005l0.024,0.005l0.024,0.005l0.025,0.004l0.024,0.005l0.025,0.004l0.024,0.004l0.025,0.005l0.024,0.003l0.025,0.004l0.025,0.004l0.025,0.003l0.025,0.004l0.025,0.003l0.025,0.003l0.025,0.003l0.025,0.003l0.025,0.003l0.026,0.002l0.025,0.003l0.025,0.002l0.026,0.002l0.026,0.002l0.025,0.002l0.026,0.002l0.026,0.001l0.026,0.002l0.026,0.001l0.026,0.001l0.026,0.001l0.026,0.001l0.026,0.001l0.026,0.001l0.027,0l0.026,0.001l0.027,0l0.026,0l0.029,0l0.03,-0.001l0.029,0l0.029,-0.001l0.029,-0.001l0.029,-0.001l0.03,-0.001l0.029,-0.002l0.029,-0.002l0.029,-0.002l0.029,-0.002l0.029,-0.002l0.029,-0.003l0.029,-0.003l0.029,-0.003l0.028,-0.003l0.029,-0.004l0.029,-0.004l0.029,-0.003l0.029,-0.005l0.028,-0.004l0.029,-0.005l0.029,-0.004l0.028,-0.005l0.029,-0.006l0.029,-0.005l0.028,-0.006l0.029,-0.005l0.028,-0.006l0.029,-0.007l0.028,-0.006l0.029,-0.007l0.028,-0.007l0.028,-0.007l0.028,-0.007l0.028,-0.008l0.028,-0.007l0.028,-0.008l0.027,-0.008l0.028,-0.009l0.027,-0.008l0.028,-0.009l0.027,-0.009l0.027,-0.009l0.027,-0.01l0.027,-0.009l0.027,-0.01l0.026,-0.01l0.027,-0.011l0.026,-0.01l0.027,-0.011l0.026,-0.011l0.026,-0.011l0.026,-0.011l0.026,-0.011l0.026,-0.012l0.026,-0.012l0.025,-0.012l0.026,-0.013l0.025,-0.012l0.025,-0.013l0.026,-0.013l0.025,-0.013l0.025,-0.014l0.024,-0.013l0.025,-0.014l0.024,-0.014l0.025,-0.014l0.024,-0.015l0.024,-0.015l0.024,-0.015l0.024,-0.015l0.023,-0.015l0.024,-0.016l0.023,-0.016l0.023,-0.016l0.023,-0.016l0.023,-0.016l0.023,-0.017l0.022,-0.017l0.023,-0.017l0.022,-0.018l0.022,-0.018l0.022,-0.018l0.022,-0.018l0.022,-0.018l0.021,-0.019l0.022,-0.018l0.021,-0.02l0.021,-0.019l0.021,-0.019l0.021,-0.02l0.021,-0.02l0.021,-0.02l0.02,-0.021l0.02,-0.02l0.02,-0.021l0.02,-0.021l0.02,-0.021l0.019,-0.022l0.02,-0.022l0.019,-0.022l0.018,-0.022l0.019,-0.022l0.018,-0.023l0.018,-0.023l0.018,-0.023l0.018,-0.023l0.018,-0.023l0.017,-0.024l0.017,-0.024l0.017,-0.024l0.017,-0.025l0.016,-0.025l0.017,-0.025l0.016,-0.025l0.016,-0.025l0.015,-0.026l0.016,-0.026l0.015,-0.026l0.015,-0.026l0.015,-0.027l0.015,-0.027l0.014,-0.027l0.014,-0.027l0.014,-0.027l0.014,-0.028l0.014,-0.029l0.01,-0.016l0.013,-0.013l0.015,-0.012l0.017,-0.008l0.018,-0.004l0.018,-0.002l0.019,0.003l0.018,0.006l0.016,0.009l0.015,0.012l0.011,0.015l0.009,0.017l0.005,0.018l0.002,0.018l0,1.684l0.894,0l0,-4.064Z" style="fill:#fff;"/><path d="M65.325,38.387l0,-1.5l-3.17,0l0,2.842l2.666,0l0,1.008l-2.666,0l0,3.012l3.17,0l0,-1.5l1.201,0l0,2.507l-6.363,0l0,-1.007l0.844,0l0,-6.862l-0.844,0l0,-1.013l6.363,0l0,2.513l-1.201,0Zm1.103,-2.416l-6.167,0l0,0.818l0.746,0l0.017,0.002l0.016,0.004l0.016,0.007l0.014,0.01l0.012,0.012l0.01,0.014l0.007,0.016l0.004,0.016l0.002,0.017l0,6.862l-0.002,0.017l-0.004,0.016l-0.007,0.016l-0.01,0.013l-0.012,0.013l-0.014,0.009l-0.016,0.008l-0.016,0.004l-0.017,0.001l-0.746,0l0,0.812l6.167,0l0,-2.312l-1.005,0l0,1.403l-0.002,0.017l-0.004,0.016l-0.007,0.016l-0.01,0.013l-0.012,0.013l-0.014,0.009l-0.015,0.008l-0.017,0.004l-0.017,0.001l-3.17,0l-0.017,-0.001l-0.016,-0.004l-0.016,-0.008l-0.014,-0.009l-0.012,-0.013l-0.01,-0.013l-0.007,-0.016l-0.004,-0.016l-0.002,-0.017l0,-3.012l0.002,-0.017l0.004,-0.017l0.007,-0.015l0.01,-0.014l0.012,-0.012l0.014,-0.01l0.016,-0.007l0.016,-0.005l0.017,-0.001l2.568,0l0,-0.812l-2.568,0l-0.017,-0.002l-0.016,-0.004l-0.016,-0.007l-0.014,-0.01l-0.012,-0.012l-0.01,-0.014l-0.007,-0.015l-0.004,-0.017l-0.002,-0.017l0,-2.842l0.002,-0.017l0.004,-0.016l0.007,-0.016l0.01,-0.014l0.012,-0.012l0.014,-0.01l0.016,-0.007l0.016,-0.004l0.017,-0.002l3.17,0l0.017,0.002l0.017,0.004l0.015,0.007l0.014,0.01l0.012,0.012l0.01,0.014l0.007,0.016l0.004,0.016l0.002,0.017l0,1.402l1.005,0l0,-2.318Z" style="fill:#fff;"/><path d="M72.38,38.387l0,-1.5l-3.17,0l0,2.842l2.666,0l0,1.008l-2.666,0l0,3.012l3.17,0l0,-1.5l1.201,0l0,2.507l-6.363,0l0,-1.007l0.844,0l0,-6.862l-0.844,0l0,-1.013l6.363,0l0,2.513l-1.201,0Zm1.104,-2.416l-6.168,0l0,0.818l0.746,0l0.017,0.002l0.016,0.004l0.016,0.007l0.014,0.01l0.012,0.012l0.01,0.014l0.007,0.016l0.004,0.016l0.002,0.017l0,6.862l-0.002,0.017l-0.004,0.016l-0.007,0.016l-0.01,0.013l-0.012,0.013l-0.014,0.009l-0.016,0.008l-0.016,0.004l-0.017,0.001l-0.746,0l0,0.812l6.168,0l0,-2.312l-1.006,0l0,1.403l-0.001,0.017l-0.005,0.016l-0.007,0.016l-0.01,0.013l-0.012,0.013l-0.014,0.009l-0.015,0.008l-0.017,0.004l-0.017,0.001l-3.17,0l-0.017,-0.001l-0.016,-0.004l-0.016,-0.008l-0.014,-0.009l-0.012,-0.013l-0.009,-0.013l-0.008,-0.016l-0.004,-0.016l-0.002,-0.017l0,-3.012l0.002,-0.017l0.004,-0.017l0.008,-0.015l0.009,-0.014l0.012,-0.012l0.014,-0.01l0.016,-0.007l0.016,-0.005l0.017,-0.001l2.568,0l0,-0.812l-2.568,0l-0.017,-0.002l-0.016,-0.004l-0.016,-0.007l-0.014,-0.01l-0.012,-0.012l-0.009,-0.014l-0.008,-0.015l-0.004,-0.017l-0.002,-0.017l0,-2.842l0.002,-0.017l0.004,-0.016l0.008,-0.016l0.009,-0.014l0.012,-0.012l0.014,-0.01l0.016,-0.007l0.016,-0.004l0.017,-0.002l3.17,0l0.017,0.002l0.017,0.004l0.015,0.007l0.014,0.01l0.012,0.012l0.01,0.014l0.007,0.016l0.005,0.016l0.001,0.017l0,1.402l1.006,0l0,-2.318Z" style="fill:#fff;"/><path d="M76.265,36.887l0,6.862l0.891,0l0,1.007l-2.883,0l0,-1.007l0.844,0l0,-6.862l-0.832,0l0,-1.013l2.883,0l0,1.013l-0.903,0Zm0.805,-0.916l-2.687,0l0,0.818l0.734,0l0.017,0.002l0.017,0.004l0.015,0.007l0.014,0.01l0.012,0.012l0.01,0.014l0.007,0.016l0.004,0.016l0.002,0.017l0,6.862l-0.002,0.017l-0.004,0.016l-0.007,0.016l-0.01,0.013l-0.012,0.013l-0.014,0.009l-0.015,0.008l-0.017,0.004l-0.017,0.001l-0.746,0l0,0.812l2.687,0l0,-0.812l-0.793,0l-0.017,-0.001l-0.016,-0.004l-0.015,-0.008l-0.014,-0.009l-0.012,-0.013l-0.01,-0.013l-0.007,-0.016l-0.005,-0.016l-0.001,-0.017l0,-6.862l0.001,-0.017l0.005,-0.016l0.007,-0.016l0.01,-0.014l0.012,-0.012l0.014,-0.01l0.015,-0.007l0.016,-0.004l0.017,-0.002l0.805,0l0,-0.818Zm4.428,0.916l-3.891,3.276l3.639,3.586l0.949,0l0,1.007l-2.39,0l0,-1.007l-3.528,-3.528l3.879,-3.334l0,-1.013l2.039,0l0,1.013l-0.697,0Zm0.599,-0.916l-1.843,0l0,0.916l-0.001,0.017l-0.005,0.016l-0.007,0.016l-0.009,0.013l-0.012,0.012l-3.799,3.266l3.453,3.452l0.01,0.012l0.008,0.013l0.006,0.014l0.003,0.015l0.001,0.016l0,0.909l2.195,0l0,-0.812l-0.851,0l-0.015,-0.001l-0.015,-0.003l-0.014,-0.006l-0.013,-0.008l-0.012,-0.01l-3.638,-3.586l-0.012,-0.013l-0.009,-0.016l-0.006,-0.017l-0.002,-0.018l0,-0.018l0.004,-0.018l0.007,-0.016l0.011,-0.015l0.012,-0.013l3.891,-3.276l0.014,-0.009l0.015,-0.008l0.017,-0.004l0.017,-0.002l0.599,0l0,-0.818Z" style="fill:#fff;"/><path d="M91.448,38.306l-0.001,0.03l-0.001,0.031l-0.001,0.03l-0.002,0.03l-0.002,0.029l-0.002,0.03l-0.003,0.03l-0.004,0.029l-0.003,0.029l-0.004,0.03l-0.005,0.029l-0.005,0.029l-0.005,0.029l-0.006,0.029l-0.006,0.028l-0.006,0.029l-0.007,0.028l-0.007,0.029l-0.008,0.028l-0.008,0.028l-0.008,0.028l-0.009,0.028l-0.009,0.028l-0.01,0.028l-0.009,0.027l-0.011,0.028l-0.01,0.027l-0.012,0.028l-0.011,0.027l-0.012,0.027l-0.012,0.027l-0.013,0.027l-0.013,0.026l-0.013,0.027l-0.014,0.026l-0.013,0.026l-0.015,0.026l-0.014,0.025l-0.015,0.025l-0.015,0.026l-0.016,0.024l-0.015,0.025l-0.017,0.025l-0.016,0.024l-0.017,0.024l-0.017,0.024l-0.017,0.023l-0.018,0.024l-0.018,0.023l-0.019,0.023l-0.018,0.023l-0.019,0.022l-0.02,0.023l-0.019,0.022l-0.02,0.022l-0.021,0.022l-0.02,0.021l-0.021,0.021l-0.021,0.022l-0.022,0.02l-0.022,0.021l-0.022,0.021l-0.023,0.02l-0.022,0.02l-0.024,0.02l-0.023,0.019l-0.024,0.019l-0.024,0.019l-0.024,0.019l-0.024,0.018l-0.025,0.019l-0.025,0.017l-0.026,0.018l-0.025,0.017l-0.026,0.018l-0.027,0.016l-0.026,0.017l-0.027,0.016l-0.027,0.016l-0.027,0.016l-0.028,0.016l-0.028,0.015l-0.028,0.015l-0.028,0.015l-0.029,0.014l-0.029,0.014l-0.029,0.014l-0.03,0.014l-0.03,0.014l-0.03,0.013l-0.03,0.013l-0.031,0.012l-0.031,0.013l-0.031,0.012l-0.032,0.012l-0.032,0.011l-0.032,0.011l-0.032,0.011l-0.032,0.011l-0.033,0.01l-0.033,0.009l-0.033,0.01l-0.033,0.009l-0.034,0.008l-0.034,0.008l-0.034,0.008l-0.034,0.008l-0.034,0.007l-0.035,0.007l-0.035,0.006l-0.035,0.006l-0.036,0.006l-0.035,0.005l-0.036,0.005l-0.036,0.005l-0.036,0.004l-0.037,0.004l-0.036,0.003l-0.037,0.003l-0.037,0.003l-0.038,0.002l-0.037,0.003l-0.038,0.001l-0.038,0.001l-0.039,0.001l-0.038,0.001l-0.039,0l-1.576,0l0,3.106l0.891,0l0,1.007l-2.883,0l0,-1.007l0.844,0l0,-6.862l-0.844,0l0,-1.013l3.592,0l0.037,0l0.037,0l0.037,0.001l0.037,0.001l0.036,0.001l0.036,0.002l0.037,0.002l0.036,0.002l0.035,0.003l0.036,0.003l0.035,0.003l0.035,0.003l0.035,0.004l0.035,0.004l0.035,0.005l0.034,0.004l0.034,0.005l0.035,0.006l0.033,0.005l0.034,0.006l0.034,0.006l0.033,0.007l0.033,0.007l0.033,0.007l0.033,0.007l0.032,0.008l0.032,0.008l0.033,0.008l0.032,0.009l0.031,0.009l0.032,0.009l0.031,0.01l0.032,0.01l0.03,0.01l0.031,0.01l0.031,0.011l0.03,0.011l0.03,0.011l0.029,0.012l0.029,0.012l0.03,0.012l0.028,0.012l0.029,0.013l0.028,0.013l0.028,0.013l0.028,0.014l0.027,0.014l0.028,0.014l0.027,0.014l0.026,0.015l0.027,0.015l0.026,0.015l0.026,0.016l0.026,0.016l0.025,0.016l0.025,0.016l0.025,0.017l0.024,0.017l0.025,0.017l0.024,0.018l0.024,0.018l0.023,0.018l0.024,0.018l0.023,0.019l0.022,0.019l0.023,0.019l0.022,0.02l0.022,0.02l0.021,0.02l0.021,0.02l0.021,0.021l0.02,0.021l0.021,0.021l0.019,0.022l0.02,0.022l0.019,0.022l0.019,0.023l0.019,0.023l0.018,0.023l0.018,0.023l0.017,0.024l0.018,0.024l0.017,0.024l0.016,0.024l0.017,0.025l0.016,0.025l0.015,0.026l0.016,0.026l0.015,0.026l0.014,0.026l0.015,0.026l0.014,0.027l0.014,0.028l0.013,0.027l0.013,0.028l0.013,0.028l0.012,0.028l0.012,0.029l0.012,0.029l0.011,0.029l0.011,0.029l0.011,0.03l0.01,0.03l0.009,0.03l0.01,0.03l0.009,0.031l0.008,0.031l0.008,0.031l0.008,0.032l0.007,0.031l0.007,0.032l0.007,0.033l0.006,0.032l0.005,0.033l0.006,0.033l0.005,0.033l0.004,0.034l0.004,0.034l0.004,0.034l0.003,0.034l0.003,0.035l0.003,0.035l0.002,0.035l0.002,0.036l0.001,0.035l0.001,0.036l0.001,0.036l0,0.037l0,0.03Zm-0.098,-0.066l-0.001,-0.035l-0.001,-0.035l-0.001,-0.034l-0.002,-0.034l-0.002,-0.034l-0.002,-0.034l-0.003,-0.034l-0.003,-0.033l-0.004,-0.033l-0.004,-0.033l-0.004,-0.032l-0.005,-0.032l-0.005,-0.032l-0.006,-0.031l-0.006,-0.032l-0.006,-0.031l-0.003,-0.015l-0.003,-0.015l-0.004,-0.016l-0.003,-0.015l-0.004,-0.015l-0.004,-0.015l-0.004,-0.015l-0.004,-0.015l-0.004,-0.015l-0.004,-0.015l-0.004,-0.014l-0.004,-0.015l-0.005,-0.014l-0.004,-0.015l-0.005,-0.014l-0.004,-0.015l-0.005,-0.014l-0.005,-0.014l-0.005,-0.015l-0.005,-0.014l-0.005,-0.014l-0.005,-0.014l-0.006,-0.014l-0.005,-0.013l-0.005,-0.014l-0.006,-0.014l-0.006,-0.014l-0.006,-0.013l-0.005,-0.014l-0.006,-0.013l-0.013,-0.027l-0.012,-0.027l-0.013,-0.026l-0.013,-0.026l-0.014,-0.026l-0.013,-0.025l-0.014,-0.025l-0.015,-0.025l-0.014,-0.024l-0.015,-0.025l-0.016,-0.024l-0.015,-0.023l-0.016,-0.024l-0.016,-0.023l-0.017,-0.023l-0.016,-0.022l-0.017,-0.022l-0.018,-0.022l-0.017,-0.022l-0.018,-0.021l-0.019,-0.021l-0.018,-0.021l-0.019,-0.021l-0.019,-0.02l-0.02,-0.02l-0.019,-0.02l-0.021,-0.019l-0.02,-0.02l-0.021,-0.018l-0.021,-0.019l-0.021,-0.018l-0.022,-0.019l-0.022,-0.018l-0.022,-0.017l-0.023,-0.018l-0.022,-0.017l-0.023,-0.016l-0.024,-0.017l-0.023,-0.016l-0.024,-0.016l-0.024,-0.016l-0.024,-0.015l-0.025,-0.016l-0.025,-0.015l-0.025,-0.014l-0.025,-0.015l-0.026,-0.014l-0.026,-0.014l-0.026,-0.013l-0.027,-0.014l-0.026,-0.013l-0.027,-0.012l-0.027,-0.013l-0.028,-0.012l-0.028,-0.012l-0.028,-0.012l-0.028,-0.011l-0.029,-0.011l-0.028,-0.011l-0.03,-0.011l-0.029,-0.01l-0.03,-0.01l-0.029,-0.01l-0.031,-0.01l-0.03,-0.009l-0.031,-0.009l-0.03,-0.009l-0.031,-0.008l-0.032,-0.008l-0.031,-0.008l-0.032,-0.007l-0.031,-0.008l-0.032,-0.006l-0.032,-0.007l-0.033,-0.006l-0.032,-0.006l-0.033,-0.006l-0.033,-0.006l-0.033,-0.005l-0.033,-0.005l-0.034,-0.004l-0.034,-0.005l-0.034,-0.004l-0.034,-0.003l-0.034,-0.004l-0.035,-0.003l-0.034,-0.003l-0.035,-0.002l-0.035,-0.002l-0.035,-0.002l-0.036,-0.002l-0.036,-0.001l-0.035,-0.001l-0.037,-0.001l-0.036,0l-0.036,-0.001l-3.494,0l0,0.818l0.746,0l0.017,0.002l0.016,0.004l0.016,0.007l0.014,0.01l0.012,0.012l0.009,0.014l0.008,0.016l0.004,0.016l0.002,0.017l0,6.862l-0.002,0.017l-0.004,0.016l-0.008,0.016l-0.009,0.013l-0.012,0.013l-0.014,0.009l-0.016,0.008l-0.016,0.004l-0.017,0.001l-0.746,0l0,0.812l2.687,0l0,-0.812l-0.793,0l-0.017,-0.001l-0.016,-0.004l-0.016,-0.008l-0.014,-0.009l-0.012,-0.013l-0.01,-0.013l-0.007,-0.016l-0.004,-0.016l-0.002,-0.017l0,-3.106l0.002,-0.017l0.004,-0.016l0.007,-0.016l0.01,-0.014l0.012,-0.012l0.014,-0.01l0.016,-0.007l0.016,-0.004l0.017,-0.002l1.576,0l0.038,0l0.038,-0.001l0.037,0l0.037,-0.002l0.037,-0.001l0.036,-0.002l0.037,-0.003l0.036,-0.002l0.036,-0.003l0.036,-0.004l0.035,-0.003l0.035,-0.004l0.035,-0.005l0.035,-0.005l0.034,-0.005l0.035,-0.005l0.034,-0.006l0.034,-0.006l0.033,-0.007l0.034,-0.007l0.033,-0.007l0.033,-0.008l0.032,-0.008l0.033,-0.008l0.032,-0.009l0.032,-0.009l0.032,-0.009l0.031,-0.01l0.032,-0.01l0.031,-0.01l0.031,-0.011l0.03,-0.011l0.031,-0.012l0.03,-0.011l0.03,-0.012l0.03,-0.013l0.029,-0.012l0.03,-0.013l0.028,-0.013l0.029,-0.013l0.028,-0.014l0.028,-0.013l0.028,-0.014l0.028,-0.015l0.027,-0.014l0.027,-0.015l0.026,-0.015l0.027,-0.015l0.026,-0.016l0.026,-0.015l0.025,-0.016l0.025,-0.016l0.025,-0.017l0.025,-0.017l0.024,-0.017l0.024,-0.017l0.024,-0.017l0.024,-0.018l0.023,-0.018l0.023,-0.018l0.023,-0.019l0.022,-0.018l0.022,-0.019l0.022,-0.019l0.022,-0.02l0.021,-0.019l0.021,-0.02l0.021,-0.02l0.02,-0.021l0.021,-0.02l0.019,-0.021l0.02,-0.02l0.019,-0.021l0.019,-0.022l0.018,-0.021l0.018,-0.022l0.018,-0.022l0.018,-0.022l0.017,-0.022l0.017,-0.022l0.017,-0.023l0.016,-0.023l0.016,-0.023l0.016,-0.023l0.015,-0.023l0.016,-0.024l0.014,-0.024l0.015,-0.024l0.014,-0.024l0.014,-0.024l0.014,-0.025l0.013,-0.025l0.013,-0.025l0.013,-0.025l0.012,-0.026l0.012,-0.025l0.012,-0.026l0.011,-0.026l0.011,-0.026l0.011,-0.026l0.01,-0.026l0.01,-0.026l0.009,-0.027l0.009,-0.026l0.009,-0.027l0.008,-0.026l0.008,-0.027l0.008,-0.027l0.007,-0.027l0.007,-0.027l0.006,-0.027l0.007,-0.027l0.005,-0.028l0.006,-0.027l0.005,-0.028l0.004,-0.028l0.005,-0.028l0.004,-0.027l0.003,-0.029l0.003,-0.028l0.003,-0.028l0.002,-0.028l0.003,-0.029l0.001,-0.028l0.002,-0.029l0,-0.029l0.001,-0.029l0,-0.029l0,-0.036Zm-1.017,0.058l0,0.023l-0.001,0.022l-0.001,0.022l-0.001,0.022l-0.001,0.022l-0.002,0.022l-0.001,0.021l-0.002,0.022l-0.003,0.021l-0.002,0.021l-0.003,0.021l-0.003,0.021l-0.003,0.02l-0.003,0.021l-0.004,0.02l-0.004,0.02l-0.004,0.02l-0.005,0.02l-0.004,0.02l-0.005,0.02l-0.005,0.019l-0.006,0.019l-0.005,0.02l-0.006,0.019l-0.006,0.018l-0.007,0.019l-0.006,0.019l-0.007,0.018l-0.007,0.018l-0.008,0.018l-0.007,0.018l-0.008,0.018l-0.008,0.017l-0.008,0.017l-0.008,0.017l-0.009,0.017l-0.008,0.017l-0.009,0.016l-0.009,0.017l-0.01,0.016l-0.009,0.016l-0.01,0.016l-0.01,0.015l-0.01,0.016l-0.01,0.015l-0.01,0.015l-0.011,0.015l-0.011,0.015l-0.011,0.015l-0.011,0.014l-0.011,0.014l-0.012,0.014l-0.011,0.014l-0.012,0.014l-0.013,0.013l-0.012,0.014l-0.012,0.013l-0.013,0.013l-0.013,0.012l-0.013,0.013l-0.013,0.012l-0.014,0.013l-0.013,0.012l-0.014,0.011l-0.014,0.012l-0.014,0.011l-0.014,0.012l-0.014,0.011l-0.015,0.01l-0.014,0.011l-0.015,0.011l-0.015,0.01l-0.015,0.01l-0.016,0.01l-0.015,0.01l-0.016,0.009l-0.015,0.01l-0.016,0.009l-0.016,0.009l-0.016,0.009l-0.017,0.008l-0.016,0.009l-0.017,0.008l-0.017,0.008l-0.016,0.008l-0.018,0.008l-0.017,0.007l-0.017,0.008l-0.018,0.007l-0.017,0.007l-0.018,0.007l-0.018,0.007l-0.018,0.006l-0.018,0.006l-0.019,0.006l-0.018,0.006l-0.019,0.006l-0.018,0.006l-0.019,0.005l-0.019,0.005l-0.019,0.005l-0.019,0.005l-0.019,0.004l-0.02,0.005l-0.019,0.004l-0.02,0.004l-0.019,0.004l-0.02,0.003l-0.02,0.004l-0.02,0.003l-0.02,0.003l-0.02,0.003l-0.02,0.003l-0.021,0.002l-0.02,0.003l-0.021,0.002l-0.02,0.002l-0.021,0.002l-0.021,0.001l-0.021,0.002l-0.021,0.001l-0.021,0.001l-0.021,0.001l-0.022,0l-0.021,0.001l-0.022,0l-0.021,0l-1.6,0l-0.017,-0.001l-0.016,-0.005l-0.016,-0.007l-0.014,-0.01l-0.012,-0.012l-0.01,-0.014l-0.007,-0.015l-0.004,-0.017l-0.002,-0.017l0,-2.795l0.002,-0.017l0.004,-0.016l0.007,-0.016l0.01,-0.014l0.012,-0.012l0.014,-0.01l0.016,-0.007l0.016,-0.004l0.017,-0.002l1.453,0l0.028,0l0.028,0.001l0.027,0l0.027,0.001l0.027,0.001l0.027,0.001l0.026,0.001l0.027,0.001l0.026,0.002l0.025,0.002l0.026,0.001l0.026,0.003l0.025,0.002l0.025,0.002l0.024,0.003l0.025,0.003l0.024,0.003l0.024,0.003l0.024,0.004l0.024,0.003l0.023,0.004l0.023,0.004l0.023,0.004l0.023,0.005l0.023,0.004l0.022,0.005l0.022,0.005l0.022,0.005l0.022,0.006l0.021,0.005l0.022,0.006l0.021,0.006l0.021,0.006l0.02,0.006l0.021,0.007l0.02,0.006l0.02,0.007l0.019,0.007l0.02,0.008l0.019,0.007l0.019,0.008l0.019,0.008l0.019,0.008l0.018,0.008l0.019,0.009l0.017,0.009l0.018,0.009l0.018,0.009l0.017,0.009l0.017,0.01l0.017,0.009l0.017,0.01l0.016,0.011l0.016,0.01l0.016,0.011l0.016,0.01l0.015,0.011l0.016,0.012l0.015,0.011l0.014,0.012l0.015,0.012l0.014,0.012l0.014,0.012l0.014,0.012l0.013,0.013l0.013,0.012l0.013,0.013l0.013,0.013l0.013,0.013l0.012,0.013l0.012,0.014l0.012,0.013l0.012,0.014l0.011,0.014l0.012,0.014l0.011,0.014l0.011,0.015l0.01,0.014l0.011,0.015l0.01,0.015l0.01,0.015l0.01,0.015l0.009,0.015l0.01,0.015l0.009,0.016l0.009,0.016l0.009,0.015l0.008,0.016l0.009,0.017l0.008,0.016l0.008,0.016l0.007,0.017l0.008,0.017l0.007,0.016l0.007,0.017l0.007,0.018l0.006,0.017l0.007,0.017l0.006,0.018l0.006,0.018l0.006,0.017l0.005,0.018l0.005,0.018l0.006,0.019l0.004,0.018l0.005,0.019l0.005,0.018l0.004,0.019l0.004,0.019l0.004,0.019l0.003,0.019l0.004,0.019l0.003,0.02l0.003,0.019l0.003,0.02l0.002,0.02l0.003,0.02l0.002,0.02l0.002,0.02l0.002,0.021l0.001,0.02l0.001,0.021l0.002,0.02l0,0.021l0.001,0.021l0.001,0.021l0,0.022l0,0.021l0,0.022Zm-0.098,-0.043l0,-0.02l-0.001,-0.02l0,-0.02l-0.001,-0.02l-0.001,-0.02l-0.002,-0.019l-0.001,-0.02l-0.002,-0.019l-0.002,-0.019l-0.002,-0.019l-0.002,-0.019l-0.002,-0.019l-0.003,-0.018l-0.003,-0.019l-0.003,-0.018l-0.003,-0.018l-0.003,-0.018l-0.004,-0.018l-0.004,-0.018l-0.004,-0.018l-0.004,-0.017l-0.004,-0.017l-0.005,-0.017l-0.005,-0.018l-0.005,-0.016l-0.005,-0.017l-0.005,-0.017l-0.006,-0.016l-0.005,-0.017l-0.006,-0.016l-0.006,-0.016l-0.007,-0.016l-0.006,-0.016l-0.007,-0.015l-0.007,-0.016l-0.007,-0.015l-0.007,-0.015l-0.008,-0.015l-0.007,-0.015l-0.008,-0.015l-0.008,-0.015l-0.009,-0.014l-0.008,-0.014l-0.009,-0.015l-0.009,-0.014l-0.009,-0.014l-0.009,-0.013l-0.009,-0.014l-0.01,-0.013l-0.01,-0.014l-0.01,-0.013l-0.01,-0.013l-0.01,-0.013l-0.011,-0.013l-0.011,-0.012l-0.011,-0.013l-0.011,-0.012l-0.011,-0.013l-0.012,-0.012l-0.012,-0.012l-0.012,-0.011l-0.012,-0.012l-0.012,-0.012l-0.013,-0.011l-0.013,-0.011l-0.013,-0.011l-0.013,-0.011l-0.013,-0.011l-0.014,-0.01l-0.014,-0.01l-0.014,-0.01l-0.015,-0.01l-0.014,-0.01l-0.015,-0.01l-0.015,-0.009l-0.016,-0.009l-0.015,-0.009l-0.016,-0.009l-0.016,-0.009l-0.016,-0.008l-0.017,-0.009l-0.017,-0.008l-0.017,-0.008l-0.017,-0.007l-0.017,-0.008l-0.018,-0.007l-0.018,-0.008l-0.018,-0.007l-0.018,-0.007l-0.019,-0.006l-0.019,-0.007l-0.019,-0.006l-0.019,-0.006l-0.02,-0.006l-0.019,-0.006l-0.02,-0.006l-0.021,-0.005l-0.02,-0.006l-0.021,-0.005l-0.021,-0.005l-0.021,-0.004l-0.021,-0.005l-0.022,-0.004l-0.022,-0.004l-0.022,-0.004l-0.022,-0.004l-0.022,-0.004l-0.023,-0.003l-0.023,-0.004l-0.023,-0.003l-0.024,-0.003l-0.024,-0.003l-0.023,-0.002l-0.025,-0.003l-0.024,-0.002l-0.025,-0.002l-0.025,-0.002l-0.025,-0.002l-0.025,-0.001l-0.025,-0.001l-0.026,-0.002l-0.026,-0.001l-0.026,0l-0.027,-0.001l-0.027,0l-0.027,-0.001l-0.027,0l-1.453,0l0,2.795l1.6,0l0.021,0l0.02,0l0.021,-0.001l0.02,0l0.021,-0.001l0.02,-0.001l0.02,-0.001l0.02,-0.002l0.02,-0.001l0.02,-0.002l0.02,-0.002l0.019,-0.002l0.02,-0.002l0.019,-0.002l0.02,-0.003l0.019,-0.003l0.019,-0.002l0.019,-0.004l0.019,-0.003l0.018,-0.003l0.019,-0.004l0.019,-0.004l0.018,-0.004l0.018,-0.004l0.019,-0.004l0.018,-0.005l0.018,-0.005l0.018,-0.004l0.017,-0.005l0.018,-0.006l0.018,-0.005l0.017,-0.006l0.017,-0.005l0.018,-0.006l0.017,-0.006l0.016,-0.007l0.017,-0.006l0.017,-0.007l0.016,-0.006l0.016,-0.007l0.017,-0.007l0.016,-0.008l0.015,-0.007l0.016,-0.008l0.016,-0.007l0.015,-0.008l0.015,-0.008l0.015,-0.009l0.015,-0.008l0.015,-0.009l0.015,-0.008l0.014,-0.009l0.015,-0.009l0.014,-0.01l0.014,-0.009l0.014,-0.01l0.013,-0.009l0.014,-0.01l0.013,-0.01l0.014,-0.011l0.013,-0.01l0.013,-0.011l0.013,-0.01l0.013,-0.011l0.012,-0.011l0.012,-0.012l0.013,-0.011l0.012,-0.012l0.012,-0.011l0.011,-0.012l0.012,-0.012l0.011,-0.013l0.011,-0.012l0.011,-0.013l0.011,-0.013l0.011,-0.012l0.01,-0.014l0.011,-0.013l0.01,-0.013l0.01,-0.014l0.009,-0.014l0.01,-0.014l0.01,-0.014l0.009,-0.014l0.009,-0.015l0.009,-0.015l0.009,-0.014l0.008,-0.015l0.009,-0.016l0.008,-0.015l0.008,-0.015l0.008,-0.016l0.008,-0.016l0.007,-0.016l0.008,-0.016l0.007,-0.017l0.007,-0.016l0.007,-0.017l0.006,-0.017l0.007,-0.017l0.006,-0.017l0.006,-0.017l0.005,-0.018l0.006,-0.018l0.005,-0.018l0.005,-0.018l0.005,-0.018l0.005,-0.018l0.004,-0.018l0.004,-0.019l0.004,-0.019l0.004,-0.019l0.003,-0.019l0.003,-0.019l0.003,-0.02l0.003,-0.019l0.003,-0.02l0.002,-0.02l0.002,-0.02l0.002,-0.02l0.002,-0.021l0.001,-0.02l0.001,-0.021l0.001,-0.021l0.001,-0.021l0.001,-0.021l0,-0.022l0,-0.021l0,-0.021Z" style="fill:#fff;"/><path d="M96.617,44.756l0,-1.007l0.738,0l-0.703,-2.016l-3.416,0l-0.686,2.016l0.914,0l0,1.007l-2.883,0l0,-1.007l0.774,0l2.765,-7.875l1.729,0l2.76,7.875l0.89,0l0,1.007l-2.882,0Zm2.784,-0.91l-0.792,0l-0.017,-0.001l-0.017,-0.005l-0.016,-0.007l-0.014,-0.01l-0.012,-0.012l-0.01,-0.014l-0.007,-0.016l-2.736,-7.81l-1.59,0l-2.743,7.81l-0.007,0.016l-0.01,0.014l-0.012,0.012l-0.014,0.01l-0.015,0.007l-0.017,0.005l-0.017,0.001l-0.676,0l0,0.812l2.687,0l0,-0.812l-0.816,0l-0.018,-0.001l-0.018,-0.006l-0.017,-0.008l-0.014,-0.011l-0.012,-0.014l-0.01,-0.016l-0.006,-0.018l-0.003,-0.018l0.001,-0.019l0.004,-0.018l0.686,-2.016l0.007,-0.015l0.01,-0.015l0.012,-0.012l0.014,-0.01l0.016,-0.008l0.016,-0.004l0.018,-0.002l3.416,0l0.017,0.002l0.016,0.004l0.016,0.007l0.014,0.01l0.012,0.013l0.01,0.014l0.007,0.016l0.703,2.015l0.004,0.017l0.002,0.017l-0.002,0.016l-0.005,0.017l-0.007,0.015l-0.01,0.014l-0.012,0.012l-0.014,0.01l-0.015,0.007l-0.016,0.004l-0.017,0.001l-0.641,0l0,0.812l2.687,0l0,-0.812Zm-2.993,-3.068l-0.005,0.017l-0.007,0.015l-0.01,0.014l-0.012,0.012l-0.014,0.009l-0.015,0.007l-0.016,0.005l-0.017,0.001l-2.742,0l-0.019,-0.002l-0.018,-0.005l-0.016,-0.008l-0.015,-0.012l-0.012,-0.014l-0.009,-0.016l-0.006,-0.017l-0.003,-0.019l0.001,-0.018l0.004,-0.018l1.359,-3.973l0.008,-0.017l0.011,-0.015l0.013,-0.013l0.016,-0.01l0.017,-0.007l0.018,-0.004l0.019,0l0.018,0.004l0.018,0.007l0.015,0.01l0.014,0.012l0.011,0.016l0.007,0.016l1.383,3.973l0.004,0.017l0.002,0.016l-0.002,0.017Zm-1.479,-3.99l-1.359,3.972l2.742,0l-1.383,-3.972Z" style="fill:#fff;"/><path d="M104.961,38.217l0,-1.383l-2.344,0l0,6.915l0.914,0l0,1.007l-2.877,0l0,-1.007l0.815,0l0,-6.915l-2.028,0l0,1.383l-1.201,0l0,-2.343l7.922,0l0,2.343l-1.201,0Zm1.103,-2.246l-7.726,0l0,2.148l1.005,0l0,-1.285l0.002,-0.016l0.004,-0.017l0.007,-0.015l0.01,-0.014l0.012,-0.012l0.014,-0.01l0.016,-0.007l0.016,-0.005l0.017,-0.001l2.028,0l0.017,0.001l0.016,0.005l0.015,0.007l0.014,0.01l0.013,0.012l0.009,0.014l0.008,0.015l0.004,0.017l0.001,0.016l0,6.915l-0.001,0.017l-0.004,0.016l-0.008,0.016l-0.009,0.013l-0.013,0.013l-0.014,0.009l-0.015,0.008l-0.016,0.004l-0.017,0.001l-0.717,0l0,0.812l2.681,0l0,-0.812l-0.816,0l-0.017,-0.001l-0.017,-0.004l-0.015,-0.008l-0.014,-0.009l-0.012,-0.013l-0.01,-0.013l-0.007,-0.016l-0.004,-0.016l-0.002,-0.017l0,-6.915l0.002,-0.016l0.004,-0.017l0.007,-0.015l0.01,-0.014l0.012,-0.012l0.014,-0.01l0.015,-0.007l0.017,-0.005l0.017,-0.001l2.344,0l0.017,0.001l0.016,0.005l0.016,0.007l0.014,0.01l0.012,0.012l0.009,0.014l0.008,0.015l0.004,0.017l0.002,0.016l0,1.285l1.005,0l0,-2.148Z" style="fill:#fff;"/><path d="M113,44.756l0,-1.007l0.891,0l0,-3.194l-5.139,0l0,3.194l0.891,0l0,1.007l-2.883,0l0,-1.007l0.844,0l0,-6.868l-0.844,0l0,-1.007l2.883,0l0,1.007l-0.891,0l0,2.69l5.139,0l0,-2.69l-0.891,0l0,-1.007l2.883,0l0,1.007l-0.844,0l0,6.868l0.844,0l0,1.007l-2.883,0Zm2.785,-8.785l-2.687,0l0,0.812l0.793,0l0.017,0.002l0.016,0.004l0.016,0.008l0.014,0.009l0.012,0.012l0.01,0.014l0.007,0.016l0.004,0.016l0.002,0.017l0,2.69l-0.002,0.017l-0.004,0.016l-0.007,0.016l-0.01,0.014l-0.012,0.012l-0.014,0.01l-0.016,0.007l-0.016,0.004l-0.017,0.002l-5.139,0l-0.017,-0.002l-0.016,-0.004l-0.016,-0.007l-0.014,-0.01l-0.012,-0.012l-0.01,-0.014l-0.007,-0.016l-0.004,-0.016l-0.002,-0.017l0,-2.69l0.002,-0.017l0.004,-0.016l0.007,-0.016l0.01,-0.014l0.012,-0.012l0.014,-0.009l0.016,-0.008l0.016,-0.004l0.017,-0.002l0.793,0l0,-0.812l-2.687,0l0,0.812l0.746,0l0.017,0.002l0.016,0.004l0.016,0.008l0.014,0.009l0.012,0.012l0.01,0.014l0.007,0.016l0.004,0.016l0.002,0.017l0,6.868l-0.002,0.017l-0.004,0.016l-0.007,0.016l-0.01,0.013l-0.012,0.013l-0.014,0.009l-0.016,0.008l-0.016,0.004l-0.017,0.001l-0.746,0l0,0.812l2.687,0l0,-0.812l-0.793,0l-0.017,-0.001l-0.016,-0.004l-0.016,-0.008l-0.014,-0.009l-0.012,-0.013l-0.01,-0.013l-0.007,-0.016l-0.004,-0.016l-0.002,-0.017l0,-3.194l0.002,-0.017l0.004,-0.016l0.007,-0.016l0.01,-0.014l0.012,-0.012l0.014,-0.01l0.016,-0.007l0.016,-0.004l0.017,-0.002l5.139,0l0.017,0.002l0.016,0.004l0.016,0.007l0.014,0.01l0.012,0.012l0.01,0.014l0.007,0.016l0.004,0.016l0.002,0.017l0,3.194l-0.002,0.017l-0.004,0.016l-0.007,0.016l-0.01,0.013l-0.012,0.013l-0.014,0.009l-0.016,0.008l-0.016,0.004l-0.017,0.001l-0.793,0l0,0.812l2.687,0l0,-0.812l-0.746,0l-0.017,-0.001l-0.016,-0.004l-0.016,-0.008l-0.014,-0.009l-0.012,-0.013l-0.009,-0.013l-0.008,-0.016l-0.004,-0.016l-0.002,-0.017l0,-6.868l0.002,-0.017l0.004,-0.016l0.008,-0.016l0.009,-0.014l0.012,-0.012l0.014,-0.009l0.016,-0.008l0.016,-0.004l0.017,-0.002l0.746,0l0,-0.812Z" style="fill:#fff;"/></g></g></g><text x="307.364px" y="935.709px" style="font-family:'Arvo-Bold', 'Arvo';font-weight:700;font-size:93.082px;fill:#ff4136;">BE SUPPORTIVE.</text><text x="692.675px" y="1207.53px" style="font-family:'Arvo-Bold', 'Arvo';font-weight:700;font-size:103.445px;fill:#ff4136;">BE DEDICA<tspan x="1260.77px 1333px " y="1207.53px 1207.53px ">TE</tspan>D.</text><g transform="matrix(3.75604,0,0,3.75604,200.213,-26.3461)"><text x="218.531px" y="58.049px" style="font-family:'Arvo';font-size:12px;fill:#111;">DIP <tspan x="244.656px " y="58.049px ">O</tspan>UR <tspan x="276.968px " y="58.049px ">T</tspan>OES <tspan x="314.683px " y="58.049px ">I</tspan>NTO</text><text x="218.531px" y="73.025px" style="font-family:'Arvo';font-size:12px;fill:#111;">THA<tspan x="245.689px 254.091px " y="73.025px 73.025px ">T </tspan>LITTLE THING</text><text x="218.531px" y="88px" style="font-family:'Arvo';font-size:12px;fill:#111;">THA<tspan x="245.689px 254.091px 257.056px 265.898px 273.855px 282.257px " y="88px 88px 88px 88px 88px 88px ">T CATC</tspan>HES <tspan x="319.488px " y="88px ">O</tspan>UR</text></g><text x="308.477px" y="1067.93px" style="font-family:'Arvo';font-size:54.459px;fill:#111;">ENCOURAGE A NEWCOMER.</text><g transform="matrix(3.62205,0,0,3.62205,-480.109,785.227)"><text x="218.531px" y="58.049px" style="font-family:'Arvo';font-size:9.303px;fill:#111;">SHARE OUR CRAFTS</text><text x="317.028px" y="58.049px" style="font-family:'Arvo';font-size:9.303px;fill:#111;">WITH THE COMMUNITY<tspan x="435.435px " y="58.049px ">.</tspan></text></g><text x="312.5px" y="310.705px" style="font-family:'Arvo';font-size:42.321px;fill:#111;">ASK QUESTIONS. READ WIDEL<tspan x="961.158px " y="310.705px ">Y</tspan>.</text><text x="312.784px" y="379.776px" style="font-family:'Arvo';font-size:39.764px;fill:#111;">SEEK UNF<tspan x="509.623px 539.563px " y="379.776px 379.776px ">AM</tspan>ILIAR EXPERIENCES.</text><text x="310.27px" y="620.716px" style="font-family:'Arvo';font-size:31.314px;fill:#111;">MAKE FRIENDS FROM</text><text x="312.114px" y="661.691px" style="font-family:'Arvo';font-size:32.966px;fill:#111;">ALL BACKGROUNDS.</text><text x="308.855px" y="457.889px" style="font-family:'Arvo';font-size:55.139px;fill:#111;">EXPLORE THE JUNGLES OF INFORMA<tspan x="1344.34px 1382.94px " y="457.889px 457.889px ">TI</tspan>ON.</text><text x="309.496px" y="525.986px" style="font-family:'Arvo';font-size:42.659px;fill:#111;">MARVEL A<tspan x="539.912px 569.781px " y="525.986px 525.986px ">T </tspan>THE V<tspan x="712.297px 744.416px " y="525.986px 525.986px ">AS</tspan>TNESS OF WHA<tspan x="1108.33px 1138.2px " y="525.986px 525.986px ">T </tspan>CAN BE LEARNT<tspan x="1492.26px " y="525.986px ">.</tspan></text><text x="1021.92px" y="380.843px" style="font-family:'Arvo';font-size:75.794px;fill:#111;">A<tspan x="1072.18px 1125.25px " y="380.843px 380.843px ">TT</tspan>ENTION.</text><text x="308.777px" y="733.728px" style="font-family:'Arvo';font-size:50.264px;fill:#111;">BE HUMBLE. BE RECEPTIVE TO ALL FEEDBACK.</text><text x="310.995px" y="792.15px" style="font-family:'Arvo';font-size:34.299px;fill:#111;">CONNECT IDEAS FROM V<tspan x="748.306px 774.131px " y="792.15px 792.15px ">AS</tspan>TL<tspan x="836.448px 859.124px " y="792.15px 792.15px ">Y </tspan>DIFFERENT DOMAINS. EXPERIMENT<tspan x="1493.79px " y="792.15px ">.</tspan></text><text x="311.017px" y="1720.52px" style="font-family:'Arvo';font-size:32.939px;fill:#111;">T<tspan x="331.121px 355.923px " y="1720.52px 1720.52px ">AK</tspan>E EVERY LITTLE STEP<tspan x="732.041px 737.396px 744.602px " y="1720.52px 1720.52px 1720.52px ">, E</tspan>VERY LITTLE DET<tspan x="1055.4px 1080.2px " y="1720.52px 1720.52px ">AI</tspan>L,<tspan x="1118.79px 1126px " y="1720.52px 1720.52px "> E</tspan>VERY LITTLE DESIRE,</text><text x="307.44px" y="1660.46px" style="font-family:'Arvo';font-size:61.608px;fill:#111;">DIG DEEPER WITH EVERY DISCOVERY<tspan x="1489.18px " y="1660.46px ">.</tspan></text><text x="310.113px" y="1769.59px" style="font-family:'Arvo';font-size:34.81px;fill:#111;">EVERY LITTLE DISCOMFORT<tspan x="811.452px 817.112px 824.727px " y="1769.59px 1769.59px 1769.59px ">, E</tspan>VERY LITTLE JO<tspan x="1122.33px 1145.34px " y="1769.59px 1769.59px ">Y </tspan>INTO THE JOURNEY</text><text x="310.715px" y="1852.16px" style="font-family:'Arvo';font-size:59.869px;fill:#111;">THA<tspan x="446.209px 488.129px " y="1852.16px 1852.16px ">T </tspan>MAKES US WHO WE TRUL<tspan x="1311.3px 1350.88px " y="1852.16px 1852.16px ">Y </tspan>ARE.</text><text x="1126.64px" y="900.588px" style="font-family:'Arvo';font-size:47.523px;fill:#111;">COLLABORA<tspan x="1428.42px 1461.69px " y="900.588px 900.588px ">TE</tspan>.</text><text x="1126.91px" y="965.879px" style="font-family:'Arvo';font-size:35.138px;fill:#111;">CRITIQUE HEARTIL<tspan x="1474.04px " y="965.879px ">Y</tspan>.</text><text x="1122.16px" y="1068.23px" style="font-family:'Arvo';font-size:86.899px;fill:#111;">BE KIND.</text><text x="310.692px" y="1159.55px" style="font-family:'Arvo';font-size:39.756px;fill:#111;">COMPOSE MUSIC.</text><text x="310.02px" y="1217.81px" style="font-family:'Arvo';font-size:31.219px;fill:#111;">DESIGN ELECTRONICS.</text><text x="311.676px" y="1279.89px" style="font-family:'Arvo';font-size:34.404px;fill:#111;">TINKER WITH TO<tspan x="624.507px 647.253px " y="1279.89px 1279.89px ">YS</tspan>.</text><text x="310.234px" y="1340.23px" style="font-family:'Arvo';font-size:30.595px;fill:#111;">PROGRAM SOFTWARE.</text><text x="310.488px" y="1413.86px" style="font-family:'Arvo';font-size:50.955px;fill:#111;">COOK MEALS.</text><text x="696.364px" y="1270.8px" style="font-family:'Arvo';font-size:35.865px;fill:#111;">PERSEVERE THROUGH THE LONG PROCESS.</text><text x="696.683px" y="1414.37px" style="font-family:'Arvo';font-size:26.27px;fill:#111;">IT IS IN THE DOING THA<tspan x="1019.89px 1038.29px " y="1414.37px 1414.37px ">T </tspan>WE V<tspan x="1116.86px 1136.64px " y="1414.37px 1414.37px ">AS</tspan>TL<tspan x="1184.37px 1201.74px " y="1414.37px 1414.37px ">Y </tspan>IMPROVE OUR CRAFT<tspan x="1495.39px " y="1414.37px ">.</tspan></text><text x="694.602px" y="1354.1px" style="font-family:'Arvo';font-size:61.498px;fill:#111;">MIST<tspan x="857.324px 903.627px " y="1354.1px 1354.1px ">AK</tspan>ES ARE NA<tspan x="1270.78px 1313.84px " y="1354.1px 1354.1px ">TU</tspan>RAL.</text><g transform="matrix(4.49429,0,0,4.65592,-59.718,1244.34)"><g transform="matrix(1.03596,0,0,1,-7.85912,0)"><text x="218.531px" y="58.049px" style="font-family:'Arvo';font-size:9.518px;fill:#111;">HA<tspan x="233.789px 240.69px 246.667px 250.537px " y="58.049px 58.049px 58.049px 58.049px ">VE T</tspan>HE <tspan x="275.614px " y="58.049px ">C</tspan>OURAGE <tspan x="328.866px " y="58.049px ">T</tspan>O</text></g><g transform="matrix(1.03596,0,0,1,-7.85912,0)"><text x="218.531px" y="71.533px" style="font-family:'Arvo';font-size:9.518px;fill:#111;">PURSUE OUR AMBITIONS.</text></g></g><g transform="matrix(3.125,0,0,3.125,-1837.91,-44.5847)"><text x="608.085px" y="686.762px" style="font-family:'Arvo';font-size:6.667px;fill:#666;">L<tspan x="612.637px 616.795px 620.774px 624.232px 629.012px 630.804px 637.811px 642.131px 645.59px 649.748px 651.54px 655.519px " y="686.762px 686.762px 686.762px 686.762px 686.762px 686.762px 686.762px 686.762px 686.762px 686.762px 686.762px 686.762px ">earn more at</tspan></text><text x="608.085px" y="693.607px" style="font-family:'Arvo-Bold', 'Arvo';font-weight:700;font-size:6.667px;fill:#666;">t<tspan x="611.022px 615.867px 620.061px 624.61px 628.804px 632.998px 638.051px 642.838px 647.338px 650.275px 655.12px 657.176px 661.35px 665.736px " y="693.607px 693.607px 693.607px 693.607px 693.607px 693.607px 693.607px 693.607px 693.607px 693.607px 693.607px 693.607px 693.607px 693.607px ">hegeekpath.com</tspan></text><rect x="608.085" y="694.109" width="64.67" height="0.332" style="fill:#666;"/></g></svg>